<svg width="1440" height="1482" viewBox="0 0 1440 1482" fill="none" xmlns="http://www.w3.org/2000/svg">
<path d="M793 1032.78C793 1034.61 793.698 1035.73 795.095 1036.14C796.365 1036.34 797.444 1036.45 798.333 1036.45C800.492 1036.45 803.413 1035.73 807.095 1034.3C810.778 1032.88 814.714 1031.04 818.905 1028.8C823.095 1026.35 826.905 1023.91 830.333 1021.46C833.889 1018.81 836.429 1016.36 837.952 1014.12C841.254 1016.77 843.921 1019.73 845.952 1022.99C848.111 1026.05 850.016 1030.23 851.667 1035.53C852.302 1037.36 853.127 1038.28 854.143 1038.28C855.032 1038.28 855.857 1037.87 856.619 1037.06C857.508 1036.24 857.952 1035.12 857.952 1033.69C857.952 1030.63 857 1027.47 855.095 1024.21C853.317 1020.95 851.286 1017.99 849 1015.34C846.714 1012.69 844.873 1010.76 843.476 1009.53C844.619 1008.51 846.524 1006.68 849.19 1004.03C851.984 1001.38 854.905 998.422 857.952 995.16C861 991.694 863.603 988.331 865.762 985.069C867.921 981.806 869 979.054 869 976.812C869 975.588 868.683 974.569 868.048 973.753C867.413 972.734 866.714 972.224 865.952 972.224C865.952 972.224 865.063 973.244 863.286 975.282C861.508 977.117 859.286 979.564 856.619 982.622C854.079 985.68 851.413 988.738 848.619 991.796C845.952 994.855 843.54 997.607 841.381 1000.05C839.349 1002.3 838.016 1003.72 837.381 1004.33C836.111 1003.32 834.143 1001.99 831.476 1000.36C828.81 998.524 825.952 996.791 822.905 995.16C819.857 993.326 817 991.796 814.333 990.573C811.667 989.35 809.698 988.738 808.429 988.738C807.159 988.738 806.524 989.86 806.524 992.102C806.524 992.918 806.714 993.631 807.095 994.243C807.603 994.651 808.111 995.058 808.619 995.466C812.429 997.709 816.175 1000.05 819.857 1002.5C823.667 1004.74 827.476 1007.09 831.286 1009.53C825.952 1014.02 820.365 1018.5 814.524 1022.99C808.683 1027.27 802.651 1029.41 796.429 1029.41C795.794 1029.41 795.095 1029.62 794.333 1030.02C793.444 1030.23 793 1031.14 793 1032.78Z" fill="#E73A3A"/>
<path d="M793 957.528C793 959.363 793.698 960.485 795.095 960.892C796.365 961.096 797.444 961.198 798.333 961.198C800.492 961.198 803.413 960.485 807.095 959.058C810.778 957.63 814.714 955.796 818.905 953.553C823.095 951.106 826.905 948.66 830.333 946.213C833.889 943.563 836.429 941.116 837.952 938.874C841.254 941.524 843.921 944.48 845.952 947.742C848.111 950.801 850.016 954.98 851.667 960.281C852.302 962.116 853.127 963.033 854.143 963.033C855.032 963.033 855.857 962.625 856.619 961.81C857.508 960.994 857.952 959.873 857.952 958.446C857.952 955.388 857 952.228 855.095 948.966C853.317 945.704 851.286 942.747 849 940.097C846.714 937.447 844.873 935.51 843.476 934.287C844.619 933.267 846.524 931.432 849.19 928.782C851.984 926.131 854.905 923.175 857.952 919.913C861 916.447 863.603 913.083 865.762 909.821C867.921 906.559 869 903.807 869 901.564C869 900.341 868.683 899.322 868.048 898.506C867.413 897.487 866.714 896.977 865.952 896.977C865.952 896.977 865.063 897.997 863.286 900.035C861.508 901.87 859.286 904.317 856.619 907.375C854.079 910.433 851.413 913.491 848.619 916.549C845.952 919.607 843.54 922.36 841.381 924.806C839.349 927.049 838.016 928.476 837.381 929.088C836.111 928.068 834.143 926.743 831.476 925.112C828.81 923.277 825.952 921.544 822.905 919.913C819.857 918.078 817 916.549 814.333 915.326C811.667 914.103 809.698 913.491 808.429 913.491C807.159 913.491 806.524 914.612 806.524 916.855C806.524 917.671 806.714 918.384 807.095 918.996C807.603 919.404 808.111 919.811 808.619 920.219C812.429 922.462 816.175 924.806 819.857 927.253C823.667 929.495 827.476 931.84 831.286 934.287C825.952 938.772 820.365 943.257 814.524 947.742C808.683 952.024 802.651 954.165 796.429 954.165C795.794 954.165 795.095 954.368 794.333 954.776C793.444 954.98 793 955.897 793 957.528Z" fill="#E73A3A"/>
<path d="M793 882.281C793 884.116 793.698 885.238 795.095 885.645C796.365 885.849 797.444 885.951 798.333 885.951C800.492 885.951 803.413 885.238 807.095 883.81C810.778 882.383 814.714 880.548 818.905 878.306C823.095 875.859 826.905 873.413 830.333 870.966C833.889 868.316 836.429 865.869 837.952 863.627C841.254 866.277 843.921 869.233 845.952 872.495C848.111 875.553 850.016 879.733 851.667 885.034C852.302 886.869 853.127 887.786 854.143 887.786C855.032 887.786 855.857 887.378 856.619 886.563C857.508 885.747 857.952 884.626 857.952 883.199C857.952 880.141 857 876.981 855.095 873.719C853.317 870.456 851.286 867.5 849 864.85C846.714 862.199 844.873 860.263 843.476 859.039C844.619 858.02 846.524 856.185 849.19 853.535C851.984 850.884 854.905 847.928 857.952 844.666C861 841.2 863.603 837.836 865.762 834.574C867.921 831.312 869 828.56 869 826.317C869 825.094 868.683 824.075 868.048 823.259C867.413 822.24 866.714 821.73 865.952 821.73C865.952 821.73 865.063 822.749 863.286 824.788C861.508 826.623 859.286 829.07 856.619 832.128C854.079 835.186 851.413 838.244 848.619 841.302C845.952 844.36 843.54 847.113 841.381 849.559C839.349 851.802 838.016 853.229 837.381 853.841C836.111 852.821 834.143 851.496 831.476 849.865C828.81 848.03 825.952 846.297 822.905 844.666C819.857 842.831 817 841.302 814.333 840.079C811.667 838.856 809.698 838.244 808.429 838.244C807.159 838.244 806.524 839.365 806.524 841.608C806.524 842.423 806.714 843.137 807.095 843.749C807.603 844.156 808.111 844.564 808.619 844.972C812.429 847.215 816.175 849.559 819.857 852.006C823.667 854.248 827.476 856.593 831.286 859.039C825.952 863.525 820.365 868.01 814.524 872.495C808.683 876.777 802.651 878.917 796.429 878.917C795.794 878.917 795.095 879.121 794.333 879.529C793.444 879.733 793 880.65 793 882.281Z" fill="#E73A3A"/>
<path d="M793 807.034C793 808.869 793.698 809.99 795.095 810.398C796.365 810.602 797.444 810.704 798.333 810.704C800.492 810.704 803.413 809.99 807.095 808.563C810.778 807.136 814.714 805.301 818.905 803.059C823.095 800.612 826.905 798.166 830.333 795.719C833.889 793.069 836.429 790.622 837.952 788.379C841.254 791.03 843.921 793.986 845.952 797.248C848.111 800.306 850.016 804.486 851.667 809.786C852.302 811.621 853.127 812.539 854.143 812.539C855.032 812.539 855.857 812.131 856.619 811.316C857.508 810.5 857.952 809.379 857.952 807.952C857.952 804.893 857 801.733 855.095 798.471C853.317 795.209 851.286 792.253 849 789.603C846.714 786.952 844.873 785.015 843.476 783.792C844.619 782.773 846.524 780.938 849.19 778.288C851.984 775.637 854.905 772.681 857.952 769.419C861 765.953 863.603 762.589 865.762 759.327C867.921 756.065 869 753.313 869 751.07C869 749.847 868.683 748.827 868.048 748.012C867.413 746.993 866.714 746.483 865.952 746.483C865.952 746.483 865.063 747.502 863.286 749.541C861.508 751.376 859.286 753.822 856.619 756.881C854.079 759.939 851.413 762.997 848.619 766.055C845.952 769.113 843.54 771.865 841.381 774.312C839.349 776.555 838.016 777.982 837.381 778.593C836.111 777.574 834.143 776.249 831.476 774.618C828.81 772.783 825.952 771.05 822.905 769.419C819.857 767.584 817 766.055 814.333 764.832C811.667 763.608 809.698 762.997 808.429 762.997C807.159 762.997 806.524 764.118 806.524 766.361C806.524 767.176 806.714 767.89 807.095 768.501C807.603 768.909 808.111 769.317 808.619 769.725C812.429 771.967 816.175 774.312 819.857 776.759C823.667 779.001 827.476 781.346 831.286 783.792C825.952 788.277 820.365 792.763 814.524 797.248C808.683 801.529 802.651 803.67 796.429 803.67C795.794 803.67 795.095 803.874 794.333 804.282C793.444 804.486 793 805.403 793 807.034Z" fill="#E73A3A"/>
<path d="M793 731.787C793 733.622 793.698 734.743 795.095 735.151C796.365 735.355 797.444 735.457 798.333 735.457C800.492 735.457 803.413 734.743 807.095 733.316C810.778 731.889 814.714 730.054 818.905 727.811C823.095 725.365 826.905 722.918 830.333 720.472C833.889 717.821 836.429 715.375 837.952 713.132C841.254 715.783 843.921 718.739 845.952 722.001C848.111 725.059 850.016 729.239 851.667 734.539C852.302 736.374 853.127 737.292 854.143 737.292C855.032 737.292 855.857 736.884 856.619 736.068C857.508 735.253 857.952 734.132 857.952 732.704C857.952 729.646 857 726.486 855.095 723.224C853.317 719.962 851.286 717.006 849 714.356C846.714 711.705 844.873 709.768 843.476 708.545C844.619 707.526 846.524 705.691 849.19 703.04C851.984 700.39 854.905 697.434 857.952 694.172C861 690.706 863.603 687.342 865.762 684.08C867.921 680.818 869 678.066 869 675.823C869 674.6 868.683 673.58 868.048 672.765C867.413 671.745 866.714 671.236 865.952 671.236C865.952 671.236 865.063 672.255 863.286 674.294C861.508 676.129 859.286 678.575 856.619 681.633C854.079 684.692 851.413 687.75 848.619 690.808C845.952 693.866 843.54 696.618 841.381 699.065C839.349 701.307 838.016 702.735 837.381 703.346C836.111 702.327 834.143 701.002 831.476 699.371C828.809 697.536 825.952 695.803 822.905 694.172C819.857 692.337 817 690.808 814.333 689.585C811.667 688.361 809.698 687.75 808.429 687.75C807.159 687.75 806.524 688.871 806.524 691.114C806.524 691.929 806.714 692.643 807.095 693.254C807.603 693.662 808.111 694.07 808.619 694.478C812.429 696.72 816.175 699.065 819.857 701.511C823.667 703.754 827.476 706.099 831.286 708.545C825.952 713.03 820.365 717.516 814.524 722.001C808.683 726.282 802.651 728.423 796.429 728.423C795.794 728.423 795.095 728.627 794.333 729.035C793.444 729.239 793 730.156 793 731.787Z" fill="#E73A3A"/>
<path d="M793 656.54C793 658.375 793.698 659.496 795.095 659.904C796.365 660.108 797.444 660.21 798.333 660.21C800.492 660.21 803.413 659.496 807.095 658.069C810.778 656.642 814.714 654.807 818.905 652.564C823.095 650.118 826.905 647.671 830.333 645.225C833.889 642.574 836.429 640.128 837.952 637.885C841.254 640.536 843.921 643.492 845.952 646.754C848.111 649.812 850.016 653.991 851.667 659.292C852.302 661.127 853.127 662.045 854.143 662.045C855.032 662.045 855.857 661.637 856.619 660.821C857.508 660.006 857.952 658.884 857.952 657.457C857.952 654.399 857 651.239 855.095 647.977C853.317 644.715 851.286 641.759 849 639.108C846.714 636.458 844.873 634.521 843.476 633.298C844.619 632.279 846.524 630.444 849.19 627.793C851.984 625.143 854.905 622.187 857.952 618.925C861 615.459 863.603 612.095 865.762 608.833C867.921 605.571 869 602.818 869 600.576C869 599.353 868.683 598.333 868.048 597.518C867.413 596.498 866.714 595.989 865.952 595.989C865.952 595.989 865.063 597.008 863.286 599.047C861.508 600.882 859.286 603.328 856.619 606.386C854.079 609.444 851.413 612.503 848.619 615.561C845.952 618.619 843.54 621.371 841.381 623.818C839.349 626.06 838.016 627.487 837.381 628.099C836.111 627.08 834.143 625.755 831.476 624.124C828.809 622.289 825.952 620.556 822.905 618.925C819.857 617.09 817 615.561 814.333 614.337C811.667 613.114 809.698 612.503 808.429 612.503C807.159 612.503 806.524 613.624 806.524 615.867C806.524 616.682 806.714 617.396 807.095 618.007C807.603 618.415 808.111 618.823 808.619 619.231C812.429 621.473 816.175 623.818 819.857 626.264C823.667 628.507 827.476 630.851 831.286 633.298C825.952 637.783 820.365 642.269 814.524 646.754C808.683 651.035 802.651 653.176 796.429 653.176C795.794 653.176 795.095 653.38 794.333 653.788C793.444 653.991 793 654.909 793 656.54Z" fill="#E73A3A"/>
<path d="M793 581.293C793 583.128 793.698 584.249 795.095 584.657C796.365 584.861 797.444 584.962 798.333 584.962C800.492 584.962 803.413 584.249 807.095 582.822C810.778 581.395 814.714 579.56 818.905 577.317C823.095 574.871 826.905 572.424 830.333 569.978C833.889 567.327 836.429 564.881 837.952 562.638C841.254 565.288 843.921 568.245 845.952 571.507C848.111 574.565 850.016 578.744 851.667 584.045C852.302 585.88 853.127 586.797 854.143 586.797C855.032 586.797 855.857 586.39 856.619 585.574C857.508 584.759 857.952 583.637 857.952 582.21C857.952 579.152 857 575.992 855.095 572.73C853.317 569.468 851.286 566.512 849 563.861C846.714 561.211 844.873 559.274 843.476 558.051C844.619 557.031 846.524 555.197 849.19 552.546C851.984 549.896 854.905 546.94 857.952 543.677C861 540.212 863.603 536.848 865.762 533.586C867.921 530.324 869 527.571 869 525.329C869 524.105 868.683 523.086 868.048 522.27C867.413 521.251 866.714 520.741 865.952 520.741C865.952 520.741 865.063 521.761 863.286 523.799C861.508 525.634 859.286 528.081 856.619 531.139C854.079 534.197 851.413 537.255 848.619 540.314C845.952 543.372 843.54 546.124 841.381 548.571C839.349 550.813 838.016 552.24 837.381 552.852C836.111 551.833 834.143 550.507 831.476 548.876C828.809 547.041 825.952 545.309 822.905 543.677C819.857 541.843 817 540.314 814.333 539.09C811.667 537.867 809.698 537.255 808.429 537.255C807.159 537.255 806.524 538.377 806.524 540.619C806.524 541.435 806.714 542.148 807.095 542.76C807.603 543.168 808.111 543.576 808.619 543.983C812.429 546.226 816.175 548.57 819.857 551.017C823.667 553.26 827.476 555.604 831.286 558.051C825.952 562.536 820.365 567.021 814.524 571.507C808.683 575.788 802.651 577.929 796.429 577.929C795.794 577.929 795.095 578.133 794.333 578.54C793.444 578.744 793 579.662 793 581.293Z" fill="#E73A3A"/>
<path d="M793 506.046C793 507.88 793.698 509.002 795.095 509.409C796.365 509.613 797.444 509.715 798.333 509.715C800.492 509.715 803.413 509.002 807.095 507.575C810.778 506.148 814.714 504.313 818.905 502.07C823.095 499.623 826.905 497.177 830.333 494.73C833.889 492.08 836.429 489.633 837.952 487.391C841.254 490.041 843.921 492.997 845.952 496.259C848.111 499.318 850.016 503.497 851.667 508.798C852.302 510.633 853.127 511.55 854.143 511.55C855.032 511.55 855.857 511.143 856.619 510.327C857.508 509.511 857.952 508.39 857.952 506.963C857.952 503.905 857 500.745 855.095 497.483C853.317 494.221 851.286 491.265 849 488.614C846.714 485.964 844.873 484.027 843.476 482.804C844.619 481.784 846.524 479.949 849.19 477.299C851.984 474.649 854.905 471.692 857.952 468.43C861 464.964 863.603 461.6 865.762 458.338C867.921 455.076 869 452.324 869 450.081C869 448.858 868.683 447.839 868.048 447.023C867.413 446.004 866.714 445.494 865.952 445.494C865.952 445.494 865.063 446.514 863.286 448.552C861.508 450.387 859.286 452.834 856.619 455.892C854.079 458.95 851.413 462.008 848.619 465.066C845.952 468.125 843.54 470.877 841.381 473.323C839.349 475.566 838.016 476.993 837.381 477.605C836.111 476.585 834.143 475.26 831.476 473.629C828.809 471.794 825.952 470.061 822.905 468.43C819.857 466.595 817 465.066 814.333 463.843C811.667 462.62 809.698 462.008 808.429 462.008C807.159 462.008 806.524 463.13 806.524 465.372C806.524 466.188 806.714 466.901 807.095 467.513C807.603 467.921 808.111 468.328 808.619 468.736C812.429 470.979 816.175 473.323 819.857 475.77C823.667 478.013 827.476 480.357 831.286 482.804C825.952 487.289 820.365 491.774 814.524 496.259C808.682 500.541 802.651 502.682 796.429 502.682C795.794 502.682 795.095 502.886 794.333 503.293C793.444 503.497 793 504.415 793 506.046Z" fill="#E73A3A"/>
<path d="M793 430.798C793 432.633 793.698 433.755 795.095 434.162C796.365 434.366 797.444 434.468 798.333 434.468C800.492 434.468 803.413 433.755 807.095 432.328C810.778 430.9 814.714 429.065 818.905 426.823C823.095 424.376 826.905 421.93 830.333 419.483C833.889 416.833 836.429 414.386 837.952 412.144C841.254 414.794 843.921 417.75 845.952 421.012C848.111 424.07 850.016 428.25 851.667 433.551C852.302 435.386 853.127 436.303 854.143 436.303C855.032 436.303 855.857 435.895 856.619 435.08C857.508 434.264 857.952 433.143 857.952 431.716C857.952 428.658 857 425.498 855.095 422.236C853.317 418.974 851.286 416.017 849 413.367C846.714 410.717 844.873 408.78 843.476 407.557C844.619 406.537 846.524 404.702 849.19 402.052C851.984 399.401 854.905 396.445 857.952 393.183C861 389.717 863.603 386.353 865.762 383.091C867.921 379.829 869 377.077 869 374.834C869 373.611 868.683 372.592 868.048 371.776C867.413 370.757 866.714 370.247 865.952 370.247C865.952 370.247 865.063 371.267 863.286 373.305C861.508 375.14 859.286 377.587 856.619 380.645C854.079 383.703 851.413 386.761 848.619 389.819C845.952 392.877 843.54 395.63 841.381 398.076C839.349 400.319 838.016 401.746 837.381 402.358C836.111 401.338 834.143 400.013 831.476 398.382C828.809 396.547 825.952 394.814 822.905 393.183C819.857 391.348 817 389.819 814.333 388.596C811.667 387.373 809.698 386.761 808.429 386.761C807.159 386.761 806.524 387.882 806.524 390.125C806.524 390.941 806.714 391.654 807.095 392.266C807.603 392.674 808.111 393.081 808.619 393.489C812.429 395.732 816.175 398.076 819.857 400.523C823.667 402.765 827.476 405.11 831.286 407.557C825.952 412.042 820.365 416.527 814.524 421.012C808.682 425.294 802.651 427.435 796.429 427.435C795.794 427.435 795.095 427.638 794.333 428.046C793.444 428.25 793 429.167 793 430.798Z" fill="#E73A3A"/>
<path d="M793 355.551C793 357.386 793.698 358.508 795.095 358.915C796.365 359.119 797.444 359.221 798.333 359.221C800.492 359.221 803.413 358.508 807.095 357.08C810.778 355.653 814.714 353.818 818.905 351.576C823.095 349.129 826.905 346.683 830.333 344.236C833.889 341.586 836.429 339.139 837.952 336.897C841.254 339.547 843.921 342.503 845.952 345.765C848.111 348.823 850.016 353.003 851.667 358.304C852.302 360.139 853.127 361.056 854.143 361.056C855.032 361.056 855.857 360.648 856.619 359.833C857.508 359.017 857.952 357.896 857.952 356.469C857.952 353.411 857 350.251 855.095 346.989C853.317 343.727 851.286 340.77 849 338.12C846.714 335.469 844.873 333.533 843.476 332.309C844.619 331.29 846.524 329.455 849.19 326.805C851.984 324.154 854.905 321.198 857.952 317.936C861 314.47 863.603 311.106 865.762 307.844C867.921 304.582 869 301.83 869 299.587C869 298.364 868.683 297.345 868.048 296.529C867.413 295.51 866.714 295 865.952 295C865.952 295 865.063 296.019 863.286 298.058C861.508 299.893 859.286 302.34 856.619 305.398C854.079 308.456 851.413 311.514 848.619 314.572C845.952 317.63 843.54 320.383 841.381 322.829C839.349 325.072 838.016 326.499 837.381 327.111C836.111 326.091 834.143 324.766 831.476 323.135C828.809 321.3 825.952 319.567 822.905 317.936C819.857 316.101 817 314.572 814.333 313.349C811.667 312.126 809.698 311.514 808.429 311.514C807.159 311.514 806.524 312.635 806.524 314.878C806.524 315.693 806.714 316.407 807.095 317.019C807.603 317.426 808.111 317.834 808.619 318.242C812.429 320.485 816.175 322.829 819.857 325.276C823.667 327.518 827.476 329.863 831.286 332.309C825.952 336.795 820.365 341.28 814.524 345.765C808.682 350.047 802.651 352.187 796.429 352.187C795.794 352.187 795.095 352.391 794.333 352.799C793.444 353.003 793 353.92 793 355.551Z" fill="#E73A3A"/>
<path d="M793 656.54C793 658.375 793.698 659.496 795.095 659.904C796.365 660.108 797.444 660.21 798.333 660.21C800.492 660.21 803.413 659.496 807.095 658.069C810.778 656.642 814.714 654.807 818.905 652.564C823.095 650.118 826.905 647.671 830.333 645.225C833.889 642.574 836.429 640.128 837.952 637.885C841.254 640.536 843.921 643.492 845.952 646.754C848.111 649.812 850.016 653.991 851.667 659.292C852.302 661.127 853.127 662.045 854.143 662.045C855.032 662.045 855.857 661.637 856.619 660.821C857.508 660.006 857.952 658.884 857.952 657.457C857.952 654.399 857 651.239 855.095 647.977C853.317 644.715 851.286 641.759 849 639.109C846.714 636.458 844.873 634.521 843.476 633.298C844.619 632.279 846.524 630.444 849.19 627.793C851.984 625.143 854.905 622.187 857.952 618.925C861 615.459 863.603 612.095 865.762 608.833C867.921 605.571 869 602.818 869 600.576C869 599.353 868.683 598.333 868.048 597.518C867.413 596.498 866.714 595.989 865.952 595.989C865.952 595.989 865.063 597.008 863.286 599.047C861.508 600.882 859.286 603.328 856.619 606.386C854.079 609.444 851.413 612.503 848.619 615.561C845.952 618.619 843.54 621.371 841.381 623.818C839.349 626.06 838.016 627.487 837.381 628.099C836.111 627.08 834.143 625.755 831.476 624.124C828.809 622.289 825.952 620.556 822.905 618.925C819.857 617.09 817 615.561 814.333 614.337C811.667 613.114 809.698 612.503 808.429 612.503C807.159 612.503 806.524 613.624 806.524 615.867C806.524 616.682 806.714 617.396 807.095 618.007C807.603 618.415 808.111 618.823 808.619 619.231C812.429 621.473 816.175 623.818 819.857 626.264C823.667 628.507 827.476 630.852 831.286 633.298C825.952 637.783 820.365 642.269 814.524 646.754C808.683 651.035 802.651 653.176 796.429 653.176C795.794 653.176 795.095 653.38 794.333 653.788C793.444 653.991 793 654.909 793 656.54Z" fill="#E73A3A"/>
<path d="M793 581.293C793 583.128 793.698 584.249 795.095 584.657C796.365 584.861 797.444 584.963 798.333 584.963C800.492 584.963 803.413 584.249 807.095 582.822C810.778 581.395 814.714 579.56 818.905 577.317C823.095 574.871 826.905 572.424 830.333 569.978C833.889 567.327 836.429 564.881 837.952 562.638C841.254 565.288 843.921 568.245 845.952 571.507C848.111 574.565 850.016 578.744 851.667 584.045C852.302 585.88 853.127 586.797 854.143 586.797C855.032 586.797 855.857 586.39 856.619 585.574C857.508 584.759 857.952 583.637 857.952 582.21C857.952 579.152 857 575.992 855.095 572.73C853.317 569.468 851.286 566.512 849 563.861C846.714 561.211 844.873 559.274 843.476 558.051C844.619 557.031 846.524 555.197 849.19 552.546C851.984 549.896 854.905 546.94 857.952 543.677C861 540.212 863.603 536.848 865.762 533.586C867.921 530.324 869 527.571 869 525.329C869 524.105 868.683 523.086 868.048 522.271C867.413 521.251 866.714 520.741 865.952 520.741C865.952 520.741 865.063 521.761 863.286 523.8C861.508 525.634 859.286 528.081 856.619 531.139C854.079 534.197 851.413 537.255 848.619 540.314C845.952 543.372 843.54 546.124 841.381 548.571C839.349 550.813 838.016 552.24 837.381 552.852C836.111 551.833 834.143 550.507 831.476 548.876C828.809 547.042 825.952 545.309 822.905 543.677C819.857 541.843 817 540.314 814.333 539.09C811.667 537.867 809.698 537.255 808.429 537.255C807.159 537.255 806.524 538.377 806.524 540.619C806.524 541.435 806.714 542.148 807.095 542.76C807.603 543.168 808.111 543.576 808.619 543.983C812.429 546.226 816.175 548.571 819.857 551.017C823.667 553.26 827.476 555.604 831.286 558.051C825.952 562.536 820.365 567.021 814.524 571.507C808.683 575.788 802.651 577.929 796.429 577.929C795.794 577.929 795.095 578.133 794.333 578.54C793.444 578.744 793 579.662 793 581.293Z" fill="#E73A3A"/>
<path d="M793 506.046C793 507.88 793.698 509.002 795.095 509.41C796.365 509.613 797.444 509.715 798.333 509.715C800.492 509.715 803.413 509.002 807.095 507.575C810.778 506.148 814.714 504.313 818.905 502.07C823.095 499.623 826.905 497.177 830.333 494.73C833.889 492.08 836.429 489.633 837.952 487.391C841.254 490.041 843.921 492.997 845.952 496.259C848.111 499.318 850.016 503.497 851.667 508.798C852.302 510.633 853.127 511.55 854.143 511.55C855.032 511.55 855.857 511.143 856.619 510.327C857.508 509.511 857.952 508.39 857.952 506.963C857.952 503.905 857 500.745 855.095 497.483C853.317 494.221 851.286 491.265 849 488.614C846.714 485.964 844.873 484.027 843.476 482.804C844.619 481.784 846.524 479.949 849.19 477.299C851.984 474.649 854.905 471.692 857.952 468.43C861 464.964 863.603 461.601 865.762 458.339C867.921 455.076 869 452.324 869 450.081C869 448.858 868.683 447.839 868.048 447.023C867.413 446.004 866.714 445.494 865.952 445.494C865.952 445.494 865.063 446.514 863.286 448.552C861.508 450.387 859.286 452.834 856.619 455.892C854.079 458.95 851.413 462.008 848.619 465.066C845.952 468.125 843.54 470.877 841.381 473.323C839.349 475.566 838.016 476.993 837.381 477.605C836.111 476.585 834.143 475.26 831.476 473.629C828.809 471.794 825.952 470.061 822.905 468.43C819.857 466.595 817 465.066 814.333 463.843C811.667 462.62 809.698 462.008 808.429 462.008C807.159 462.008 806.524 463.13 806.524 465.372C806.524 466.188 806.714 466.901 807.095 467.513C807.603 467.921 808.111 468.328 808.619 468.736C812.429 470.979 816.175 473.323 819.857 475.77C823.667 478.013 827.476 480.357 831.286 482.804C825.952 487.289 820.365 491.774 814.524 496.259C808.682 500.541 802.651 502.682 796.429 502.682C795.794 502.682 795.095 502.886 794.333 503.293C793.444 503.497 793 504.415 793 506.046Z" fill="#E73A3A"/>
<path d="M793 430.798C793 432.633 793.698 433.755 795.095 434.162C796.365 434.366 797.444 434.468 798.333 434.468C800.492 434.468 803.413 433.755 807.095 432.328C810.778 430.9 814.714 429.065 818.905 426.823C823.095 424.376 826.905 421.93 830.333 419.483C833.889 416.833 836.429 414.386 837.952 412.144C841.254 414.794 843.921 417.75 845.952 421.012C848.111 424.07 850.016 428.25 851.667 433.551C852.302 435.386 853.127 436.303 854.143 436.303C855.032 436.303 855.857 435.895 856.619 435.08C857.508 434.264 857.952 433.143 857.952 431.716C857.952 428.658 857 425.498 855.095 422.236C853.317 418.974 851.286 416.017 849 413.367C846.714 410.717 844.873 408.78 843.476 407.557C844.619 406.537 846.524 404.702 849.19 402.052C851.984 399.401 854.905 396.445 857.952 393.183C861 389.717 863.603 386.353 865.762 383.091C867.921 379.829 869 377.077 869 374.834C869 373.611 868.683 372.592 868.048 371.776C867.413 370.757 866.714 370.247 865.952 370.247C865.952 370.247 865.063 371.267 863.286 373.305C861.508 375.14 859.286 377.587 856.619 380.645C854.079 383.703 851.413 386.761 848.619 389.819C845.952 392.877 843.54 395.63 841.381 398.076C839.349 400.319 838.016 401.746 837.381 402.358C836.111 401.338 834.143 400.013 831.476 398.382C828.809 396.547 825.952 394.814 822.905 393.183C819.857 391.348 817 389.819 814.333 388.596C811.667 387.373 809.698 386.761 808.429 386.761C807.159 386.761 806.524 387.882 806.524 390.125C806.524 390.941 806.714 391.654 807.095 392.266C807.603 392.674 808.111 393.081 808.619 393.489C812.429 395.732 816.175 398.076 819.857 400.523C823.667 402.765 827.476 405.11 831.286 407.557C825.952 412.042 820.365 416.527 814.524 421.012C808.682 425.294 802.651 427.435 796.429 427.435C795.794 427.435 795.095 427.638 794.333 428.046C793.444 428.25 793 429.167 793 430.798Z" fill="#E73A3A"/>
<path d="M793 355.551C793 357.386 793.698 358.508 795.095 358.915C796.365 359.119 797.444 359.221 798.333 359.221C800.492 359.221 803.413 358.508 807.095 357.08C810.778 355.653 814.714 353.818 818.905 351.576C823.095 349.129 826.905 346.683 830.333 344.236C833.889 341.586 836.429 339.139 837.952 336.897C841.254 339.547 843.921 342.503 845.952 345.765C848.111 348.823 850.016 353.003 851.667 358.304C852.302 360.139 853.127 361.056 854.143 361.056C855.032 361.056 855.857 360.648 856.619 359.833C857.508 359.017 857.952 357.896 857.952 356.469C857.952 353.411 857 350.251 855.095 346.989C853.317 343.727 851.286 340.77 849 338.12C846.714 335.469 844.873 333.533 843.476 332.309C844.619 331.29 846.524 329.455 849.19 326.805C851.984 324.154 854.905 321.198 857.952 317.936C861 314.47 863.603 311.106 865.762 307.844C867.921 304.582 869 301.83 869 299.587C869 298.364 868.683 297.345 868.048 296.529C867.413 295.51 866.714 295 865.952 295C865.952 295 865.063 296.019 863.286 298.058C861.508 299.893 859.286 302.34 856.619 305.398C854.079 308.456 851.413 311.514 848.619 314.572C845.952 317.63 843.54 320.383 841.381 322.829C839.349 325.072 838.016 326.499 837.381 327.111C836.111 326.091 834.143 324.766 831.476 323.135C828.809 321.3 825.952 319.567 822.905 317.936C819.857 316.101 817 314.572 814.333 313.349C811.667 312.126 809.698 311.514 808.429 311.514C807.159 311.514 806.524 312.635 806.524 314.878C806.524 315.693 806.714 316.407 807.095 317.019C807.603 317.426 808.111 317.834 808.619 318.242C812.429 320.485 816.175 322.829 819.857 325.276C823.667 327.518 827.476 329.863 831.286 332.309C825.952 336.795 820.365 341.28 814.524 345.765C808.682 350.047 802.651 352.187 796.429 352.187C795.794 352.187 795.095 352.391 794.333 352.799C793.444 353.003 793 353.92 793 355.551Z" fill="#E73A3A"/>
<g filter="url(#filter0_f_144_76)">
<circle cx="718" cy="741" r="241" fill="#DF0000"/>
</g>
<path d="M525 907.467C525 908.311 525.321 908.827 525.964 909.015C526.548 909.109 527.045 909.156 527.454 909.156C528.447 909.156 529.791 908.827 531.486 908.171C533.18 907.514 534.991 906.67 536.919 905.638C538.848 904.512 540.6 903.387 542.178 902.261C543.814 901.041 544.983 899.916 545.684 898.884C547.203 900.103 548.43 901.463 549.365 902.964C550.358 904.372 551.234 906.295 551.994 908.734C552.286 909.578 552.666 910 553.133 910C553.542 910 553.922 909.812 554.273 909.437C554.682 909.062 554.886 908.546 554.886 907.889C554.886 906.482 554.448 905.028 553.571 903.527C552.753 902.026 551.819 900.666 550.767 899.447C549.715 898.227 548.868 897.336 548.225 896.773C548.751 896.304 549.628 895.46 550.855 894.24C552.14 893.021 553.484 891.661 554.886 890.16C556.288 888.565 557.486 887.017 558.479 885.516C559.473 884.015 559.969 882.749 559.969 881.717C559.969 881.154 559.823 880.685 559.531 880.31C559.239 879.841 558.918 879.606 558.567 879.606C558.567 879.606 558.158 880.075 557.34 881.013C556.522 881.858 555.5 882.983 554.273 884.39C553.104 885.797 551.877 887.205 550.592 888.612C549.365 890.019 548.254 891.285 547.261 892.411C546.326 893.443 545.713 894.1 545.421 894.381C544.836 893.912 543.931 893.302 542.704 892.552C541.477 891.707 540.162 890.91 538.76 890.16C537.358 889.315 536.043 888.612 534.816 888.049C533.589 887.486 532.683 887.205 532.099 887.205C531.515 887.205 531.223 887.721 531.223 888.752C531.223 889.128 531.31 889.456 531.486 889.737C531.719 889.925 531.953 890.113 532.187 890.3C533.94 891.332 535.663 892.411 537.358 893.537C539.11 894.569 540.863 895.647 542.616 896.773C540.162 898.837 537.591 900.901 534.904 902.964C532.216 904.934 529.441 905.919 526.578 905.919C526.285 905.919 525.964 906.013 525.614 906.201C525.205 906.295 525 906.717 525 907.467Z" fill="#E73A3A"/>
<path d="M525 872.844C525 873.689 525.321 874.204 525.964 874.392C526.548 874.486 527.045 874.533 527.454 874.533C528.447 874.533 529.791 874.204 531.486 873.548C533.18 872.891 534.991 872.047 536.919 871.015C538.848 869.889 540.6 868.764 542.178 867.638C543.814 866.418 544.983 865.293 545.684 864.261C547.203 865.48 548.43 866.841 549.365 868.341C550.358 869.749 551.234 871.672 551.994 874.111C552.286 874.955 552.666 875.377 553.133 875.377C553.542 875.377 553.922 875.189 554.273 874.814C554.682 874.439 554.886 873.923 554.886 873.266C554.886 871.859 554.448 870.405 553.571 868.904C552.753 867.403 551.819 866.043 550.767 864.824C549.715 863.604 548.868 862.713 548.225 862.15C548.751 861.681 549.628 860.837 550.855 859.617C552.14 858.398 553.484 857.038 554.886 855.537C556.288 853.942 557.486 852.394 558.479 850.893C559.473 849.392 559.969 848.126 559.969 847.094C559.969 846.531 559.823 846.062 559.531 845.687C559.239 845.218 558.918 844.983 558.567 844.983C558.567 844.983 558.158 845.452 557.34 846.39C556.522 847.235 555.5 848.36 554.273 849.767C553.104 851.175 551.877 852.582 550.592 853.989C549.365 855.396 548.254 856.662 547.261 857.788C546.326 858.82 545.713 859.477 545.421 859.758C544.836 859.289 543.931 858.679 542.704 857.929C541.477 857.084 540.162 856.287 538.76 855.537C537.358 854.692 536.043 853.989 534.816 853.426C533.589 852.863 532.683 852.582 532.099 852.582C531.515 852.582 531.223 853.098 531.223 854.13C531.223 854.505 531.31 854.833 531.486 855.115C531.719 855.302 531.953 855.49 532.187 855.677C533.94 856.709 535.663 857.788 537.358 858.914C539.11 859.946 540.863 861.024 542.616 862.15C540.162 864.214 537.591 866.278 534.904 868.341C532.216 870.311 529.441 871.296 526.578 871.296C526.285 871.296 525.964 871.39 525.614 871.578C525.205 871.672 525 872.094 525 872.844Z" fill="#E73A3A"/>
<path d="M525 838.221C525 839.066 525.321 839.582 525.964 839.769C526.548 839.863 527.045 839.91 527.454 839.91C528.447 839.91 529.791 839.582 531.486 838.925C533.18 838.268 534.991 837.424 536.919 836.392C538.848 835.266 540.6 834.141 542.178 833.015C543.814 831.796 544.983 830.67 545.684 829.638C547.203 830.857 548.43 832.218 549.365 833.719C550.358 835.126 551.234 837.049 551.994 839.488C552.286 840.332 552.666 840.754 553.133 840.754C553.542 840.754 553.922 840.567 554.273 840.191C554.682 839.816 554.886 839.3 554.886 838.644C554.886 837.236 554.448 835.782 553.571 834.281C552.753 832.78 551.819 831.42 550.767 830.201C549.715 828.981 548.868 828.09 548.225 827.527C548.751 827.058 549.628 826.214 550.855 824.994C552.14 823.775 553.484 822.415 554.886 820.914C556.288 819.319 557.486 817.771 558.479 816.27C559.473 814.769 559.969 813.503 559.969 812.471C559.969 811.908 559.823 811.439 559.531 811.064C559.239 810.595 558.918 810.36 558.567 810.36C558.567 810.36 558.158 810.829 557.34 811.767C556.522 812.612 555.5 813.737 554.273 815.145C553.104 816.552 551.877 817.959 550.592 819.366C549.365 820.773 548.254 822.039 547.261 823.165C546.326 824.197 545.713 824.854 545.421 825.135C544.836 824.666 543.931 824.056 542.704 823.306C541.477 822.462 540.162 821.664 538.76 820.914C537.358 820.069 536.043 819.366 534.816 818.803C533.589 818.24 532.683 817.959 532.099 817.959C531.515 817.959 531.223 818.475 531.223 819.507C531.223 819.882 531.31 820.21 531.486 820.492C531.719 820.679 531.953 820.867 532.187 821.054C533.94 822.086 535.663 823.165 537.358 824.291C539.11 825.323 540.863 826.402 542.616 827.527C540.162 829.591 537.591 831.655 534.904 833.719C532.216 835.689 529.441 836.674 526.578 836.674C526.285 836.674 525.964 836.767 525.614 836.955C525.205 837.049 525 837.471 525 838.221Z" fill="#E73A3A"/>
<path d="M525 803.598C525 804.443 525.321 804.959 525.964 805.146C526.548 805.24 527.045 805.287 527.454 805.287C528.447 805.287 529.791 804.959 531.486 804.302C533.18 803.645 534.991 802.801 536.919 801.769C538.848 800.643 540.6 799.518 542.178 798.392C543.814 797.173 544.983 796.047 545.684 795.015C547.203 796.235 548.43 797.595 549.365 799.096C550.358 800.503 551.234 802.426 551.994 804.865C552.286 805.709 552.666 806.131 553.133 806.131C553.542 806.131 553.922 805.944 554.273 805.568C554.682 805.193 554.886 804.677 554.886 804.021C554.886 802.613 554.448 801.159 553.571 799.659C552.753 798.158 551.819 796.797 550.767 795.578C549.715 794.358 548.868 793.467 548.225 792.904C548.751 792.435 549.628 791.591 550.855 790.371C552.14 789.152 553.484 787.792 554.886 786.291C556.288 784.696 557.486 783.148 558.479 781.647C559.473 780.146 559.969 778.88 559.969 777.848C559.969 777.285 559.823 776.816 559.531 776.441C559.239 775.972 558.918 775.737 558.567 775.737C558.567 775.737 558.158 776.206 557.34 777.145C556.522 777.989 555.5 779.115 554.273 780.522C553.104 781.929 551.877 783.336 550.592 784.743C549.365 786.15 548.254 787.417 547.261 788.542C546.326 789.574 545.713 790.231 545.421 790.512C544.836 790.043 543.931 789.433 542.704 788.683C541.477 787.839 540.162 787.041 538.76 786.291C537.358 785.447 536.043 784.743 534.816 784.18C533.589 783.617 532.683 783.336 532.099 783.336C531.515 783.336 531.223 783.852 531.223 784.884C531.223 785.259 531.31 785.587 531.486 785.869C531.719 786.056 531.953 786.244 532.187 786.432C533.94 787.463 535.663 788.542 537.358 789.668C539.11 790.7 540.863 791.779 542.616 792.904C540.162 794.968 537.591 797.032 534.904 799.096C532.216 801.066 529.441 802.051 526.578 802.051C526.285 802.051 525.964 802.144 525.614 802.332C525.205 802.426 525 802.848 525 803.598Z" fill="#E73A3A"/>
<path d="M525 768.976C525 769.82 525.321 770.336 525.964 770.523C526.548 770.617 527.045 770.664 527.454 770.664C528.447 770.664 529.791 770.336 531.486 769.679C533.18 769.022 534.991 768.178 536.919 767.146C538.848 766.021 540.6 764.895 542.178 763.769C543.814 762.55 544.983 761.424 545.684 760.392C547.203 761.612 548.43 762.972 549.365 764.473C550.358 765.88 551.234 767.803 551.994 770.242C552.286 771.086 552.666 771.508 553.133 771.508C553.542 771.508 553.922 771.321 554.273 770.946C554.682 770.57 554.886 770.054 554.886 769.398C554.886 767.991 554.448 766.537 553.571 765.036C552.753 763.535 551.819 762.174 550.767 760.955C549.715 759.735 548.868 758.844 548.225 758.281C548.751 757.812 549.628 756.968 550.855 755.749C552.14 754.529 553.484 753.169 554.886 751.668C556.288 750.073 557.486 748.525 558.479 747.024C559.473 745.524 559.969 744.257 559.969 743.225C559.969 742.662 559.823 742.193 559.531 741.818C559.239 741.349 558.918 741.115 558.567 741.115C558.567 741.115 558.158 741.584 557.34 742.522C556.522 743.366 555.5 744.492 554.273 745.899C553.104 747.306 551.877 748.713 550.592 750.12C549.365 751.527 548.254 752.794 547.261 753.919C546.326 754.951 545.713 755.608 545.421 755.889C544.836 755.42 543.931 754.811 542.704 754.06C541.477 753.216 540.162 752.418 538.76 751.668C537.358 750.824 536.043 750.12 534.816 749.557C533.589 748.994 532.683 748.713 532.099 748.713C531.515 748.713 531.223 749.229 531.223 750.261C531.223 750.636 531.31 750.964 531.486 751.246C531.719 751.433 531.953 751.621 532.187 751.809C533.94 752.841 535.663 753.919 537.358 755.045C539.11 756.077 540.863 757.156 542.616 758.281C540.162 760.345 537.591 762.409 534.904 764.473C532.216 766.443 529.441 767.428 526.578 767.428C526.285 767.428 525.964 767.522 525.614 767.709C525.205 767.803 525 768.225 525 768.976Z" fill="#E73A3A"/>
<path d="M525 734.353C525 735.197 525.321 735.713 525.964 735.9C526.548 735.994 527.045 736.041 527.454 736.041C528.447 736.041 529.791 735.713 531.486 735.056C533.18 734.4 534.991 733.555 536.919 732.523C538.848 731.398 540.6 730.272 542.178 729.146C543.814 727.927 544.983 726.801 545.684 725.769C547.203 726.989 548.43 728.349 549.365 729.85C550.358 731.257 551.234 733.18 551.994 735.619C552.286 736.463 552.666 736.885 553.133 736.885C553.542 736.885 553.922 736.698 554.273 736.323C554.682 735.947 554.886 735.431 554.886 734.775C554.886 733.368 554.448 731.914 553.571 730.413C552.753 728.912 551.819 727.552 550.767 726.332C549.715 725.113 548.868 724.221 548.225 723.659C548.751 723.189 549.628 722.345 550.855 721.126C552.14 719.906 553.484 718.546 554.886 717.045C556.288 715.45 557.486 713.902 558.479 712.402C559.473 710.901 559.969 709.634 559.969 708.602C559.969 708.039 559.823 707.57 559.531 707.195C559.239 706.726 558.918 706.492 558.567 706.492C558.567 706.492 558.158 706.961 557.34 707.899C556.522 708.743 555.5 709.869 554.273 711.276C553.104 712.683 551.877 714.09 550.592 715.497C549.365 716.904 548.254 718.171 547.261 719.296C546.326 720.328 545.713 720.985 545.421 721.266C544.836 720.797 543.931 720.188 542.704 719.437C541.477 718.593 540.162 717.796 538.76 717.045C537.358 716.201 536.043 715.497 534.816 714.934C533.589 714.372 532.683 714.09 532.099 714.09C531.515 714.09 531.223 714.606 531.223 715.638C531.223 716.013 531.31 716.341 531.486 716.623C531.719 716.811 531.953 716.998 532.187 717.186C533.94 718.218 535.663 719.296 537.358 720.422C539.11 721.454 540.863 722.533 542.616 723.659C540.162 725.722 537.591 727.786 534.904 729.85C532.216 731.82 529.441 732.805 526.578 732.805C526.285 732.805 525.964 732.899 525.614 733.086C525.205 733.18 525 733.602 525 734.353Z" fill="#E73A3A"/>
<path d="M525 699.73C525 700.574 525.321 701.09 525.964 701.278C526.548 701.371 527.045 701.418 527.454 701.418C528.447 701.418 529.791 701.09 531.486 700.433C533.18 699.777 534.991 698.932 536.919 697.9C538.848 696.775 540.6 695.649 542.178 694.523C543.814 693.304 544.982 692.178 545.684 691.146C547.203 692.366 548.43 693.726 549.365 695.227C550.358 696.634 551.234 698.557 551.994 700.996C552.286 701.84 552.666 702.263 553.133 702.263C553.542 702.263 553.922 702.075 554.273 701.7C554.682 701.324 554.886 700.809 554.886 700.152C554.886 698.745 554.448 697.291 553.571 695.79C552.753 694.289 551.819 692.929 550.767 691.709C549.715 690.49 548.868 689.598 548.225 689.036C548.751 688.567 549.628 687.722 550.855 686.503C552.14 685.283 553.484 683.923 554.886 682.422C556.288 680.827 557.486 679.28 558.479 677.779C559.473 676.278 559.969 675.011 559.969 673.979C559.969 673.417 559.823 672.947 559.531 672.572C559.239 672.103 558.918 671.869 558.567 671.869C558.567 671.869 558.158 672.338 557.34 673.276C556.522 674.12 555.5 675.246 554.273 676.653C553.104 678.06 551.877 679.467 550.592 680.874C549.365 682.281 548.254 683.548 547.261 684.674C546.326 685.705 545.713 686.362 545.421 686.643C544.836 686.174 543.931 685.565 542.704 684.814C541.477 683.97 540.162 683.173 538.76 682.422C537.358 681.578 536.043 680.874 534.816 680.311C533.589 679.749 532.683 679.467 532.099 679.467C531.515 679.467 531.223 679.983 531.223 681.015C531.223 681.39 531.31 681.719 531.486 682C531.719 682.188 531.953 682.375 532.187 682.563C533.94 683.595 535.663 684.673 537.358 685.799C539.11 686.831 540.863 687.91 542.616 689.036C540.162 691.099 537.591 693.163 534.904 695.227C532.216 697.197 529.441 698.182 526.578 698.182C526.285 698.182 525.964 698.276 525.614 698.463C525.205 698.557 525 698.979 525 699.73Z" fill="#E73A3A"/>
<path d="M525 665.107C525 665.951 525.321 666.467 525.964 666.655C526.548 666.748 527.045 666.795 527.454 666.795C528.447 666.795 529.791 666.467 531.486 665.81C533.18 665.154 534.991 664.309 536.919 663.278C538.848 662.152 540.6 661.026 542.178 659.9C543.814 658.681 544.982 657.555 545.684 656.523C547.203 657.743 548.43 659.103 549.365 660.604C550.358 662.011 551.234 663.934 551.994 666.373C552.286 667.217 552.666 667.64 553.133 667.64C553.542 667.64 553.922 667.452 554.273 667.077C554.682 666.702 554.886 666.186 554.886 665.529C554.886 664.122 554.448 662.668 553.571 661.167C552.753 659.666 551.819 658.306 550.767 657.086C549.715 655.867 548.868 654.976 548.225 654.413C548.751 653.944 549.628 653.099 550.855 651.88C552.14 650.66 553.484 649.3 554.886 647.799C556.288 646.204 557.486 644.657 558.479 643.156C559.473 641.655 559.969 640.388 559.969 639.356C559.969 638.794 559.823 638.325 559.531 637.949C559.239 637.48 558.918 637.246 558.567 637.246C558.567 637.246 558.158 637.715 557.34 638.653C556.522 639.497 555.5 640.623 554.273 642.03C553.104 643.437 551.877 644.844 550.592 646.251C549.365 647.658 548.254 648.925 547.261 650.051C546.326 651.082 545.713 651.739 545.421 652.021C544.836 651.552 543.931 650.942 542.704 650.191C541.477 649.347 540.162 648.55 538.76 647.799C537.358 646.955 536.043 646.251 534.816 645.689C533.589 645.126 532.683 644.844 532.099 644.844C531.515 644.844 531.223 645.36 531.223 646.392C531.223 646.767 531.31 647.096 531.486 647.377C531.719 647.565 531.953 647.752 532.187 647.94C533.94 648.972 535.663 650.051 537.358 651.176C539.11 652.208 540.863 653.287 542.616 654.413C540.162 656.476 537.591 658.54 534.904 660.604C532.216 662.574 529.441 663.559 526.578 663.559C526.285 663.559 525.964 663.653 525.614 663.84C525.205 663.934 525 664.356 525 665.107Z" fill="#E73A3A"/>
<path d="M525 630.484C525 631.328 525.321 631.844 525.964 632.032C526.548 632.126 527.045 632.172 527.454 632.172C528.447 632.172 529.791 631.844 531.486 631.187C533.18 630.531 534.991 629.687 536.919 628.655C538.848 627.529 540.6 626.403 542.178 625.278C543.814 624.058 544.982 622.932 545.684 621.9C547.203 623.12 548.43 624.48 549.365 625.981C550.358 627.388 551.234 629.311 551.994 631.75C552.286 632.595 552.666 633.017 553.133 633.017C553.542 633.017 553.922 632.829 554.273 632.454C554.682 632.079 554.886 631.563 554.886 630.906C554.886 629.499 554.448 628.045 553.571 626.544C552.753 625.043 551.819 623.683 550.767 622.463C549.715 621.244 548.868 620.353 548.225 619.79C548.751 619.321 549.628 618.476 550.855 617.257C552.14 616.037 553.484 614.677 554.886 613.176C556.288 611.582 557.486 610.034 558.479 608.533C559.473 607.032 559.969 605.765 559.969 604.734C559.969 604.171 559.823 603.702 559.531 603.326C559.239 602.857 558.918 602.623 558.567 602.623C558.567 602.623 558.158 603.092 557.34 604.03C556.522 604.874 555.5 606 554.273 607.407C553.104 608.814 551.877 610.221 550.592 611.628C549.365 613.036 548.254 614.302 547.261 615.428C546.326 616.46 545.713 617.116 545.421 617.398C544.836 616.929 543.931 616.319 542.704 615.568C541.477 614.724 540.162 613.927 538.76 613.176C537.358 612.332 536.043 611.628 534.816 611.066C533.589 610.503 532.683 610.221 532.099 610.221C531.515 610.221 531.223 610.737 531.223 611.769C531.223 612.144 531.31 612.473 531.486 612.754C531.719 612.942 531.953 613.129 532.187 613.317C533.94 614.349 535.663 615.428 537.358 616.553C539.11 617.585 540.863 618.664 542.616 619.79C540.162 621.854 537.591 623.917 534.904 625.981C532.216 627.951 529.441 628.936 526.578 628.936C526.285 628.936 525.964 629.03 525.614 629.217C525.205 629.311 525 629.733 525 630.484Z" fill="#E73A3A"/>
<path d="M525 595.861C525 596.705 525.321 597.221 525.964 597.409C526.548 597.503 527.045 597.55 527.454 597.55C528.447 597.55 529.791 597.221 531.486 596.565C533.18 595.908 534.991 595.064 536.919 594.032C538.848 592.906 540.6 591.78 542.178 590.655C543.814 589.435 544.982 588.309 545.684 587.278C547.203 588.497 548.43 589.857 549.365 591.358C550.358 592.765 551.234 594.688 551.994 597.127C552.286 597.972 552.666 598.394 553.133 598.394C553.542 598.394 553.922 598.206 554.273 597.831C554.682 597.456 554.886 596.94 554.886 596.283C554.886 594.876 554.448 593.422 553.571 591.921C552.753 590.42 551.819 589.06 550.767 587.84C549.715 586.621 548.868 585.73 548.225 585.167C548.751 584.698 549.628 583.854 550.855 582.634C552.14 581.415 553.484 580.054 554.886 578.553C556.288 576.959 557.486 575.411 558.479 573.91C559.473 572.409 559.969 571.143 559.969 570.111C559.969 569.548 559.823 569.079 559.531 568.704C559.239 568.234 558.918 568 558.567 568C558.567 568 558.158 568.469 557.34 569.407C556.522 570.251 555.5 571.377 554.273 572.784C553.104 574.191 551.877 575.598 550.592 577.006C549.365 578.413 548.254 579.679 547.261 580.805C546.326 581.837 545.713 582.493 545.421 582.775C544.836 582.306 543.931 581.696 542.704 580.946C541.477 580.101 540.162 579.304 538.76 578.553C537.358 577.709 536.043 577.006 534.816 576.443C533.589 575.88 532.683 575.598 532.099 575.598C531.515 575.598 531.223 576.114 531.223 577.146C531.223 577.522 531.31 577.85 531.486 578.131C531.719 578.319 531.953 578.507 532.187 578.694C533.94 579.726 535.663 580.805 537.358 581.931C539.11 582.962 540.863 584.041 542.616 585.167C540.162 587.231 537.591 589.294 534.904 591.358C532.216 593.328 529.441 594.313 526.578 594.313C526.285 594.313 525.964 594.407 525.614 594.595C525.205 594.688 525 595.111 525 595.861Z" fill="#E73A3A"/>
<path d="M525 734.353C525 735.197 525.321 735.713 525.964 735.9C526.548 735.994 527.045 736.041 527.454 736.041C528.447 736.041 529.791 735.713 531.486 735.056C533.18 734.4 534.991 733.555 536.919 732.523C538.848 731.398 540.6 730.272 542.178 729.146C543.814 727.927 544.983 726.801 545.684 725.769C547.203 726.989 548.43 728.349 549.365 729.85C550.358 731.257 551.234 733.18 551.994 735.619C552.286 736.463 552.666 736.885 553.133 736.885C553.542 736.885 553.922 736.698 554.273 736.323C554.682 735.947 554.886 735.431 554.886 734.775C554.886 733.368 554.448 731.914 553.571 730.413C552.753 728.912 551.819 727.552 550.767 726.332C549.715 725.113 548.868 724.221 548.225 723.659C548.751 723.189 549.628 722.345 550.855 721.126C552.14 719.906 553.484 718.546 554.886 717.045C556.288 715.45 557.486 713.902 558.479 712.402C559.473 710.901 559.969 709.634 559.969 708.602C559.969 708.039 559.823 707.57 559.531 707.195C559.239 706.726 558.918 706.492 558.567 706.492C558.567 706.492 558.158 706.961 557.34 707.899C556.522 708.743 555.5 709.869 554.273 711.276C553.104 712.683 551.877 714.09 550.592 715.497C549.365 716.904 548.254 718.171 547.261 719.296C546.326 720.328 545.713 720.985 545.421 721.266C544.836 720.797 543.931 720.188 542.704 719.437C541.477 718.593 540.162 717.796 538.76 717.045C537.358 716.201 536.043 715.497 534.816 714.934C533.589 714.372 532.683 714.09 532.099 714.09C531.515 714.09 531.223 714.606 531.223 715.638C531.223 716.013 531.31 716.341 531.486 716.623C531.719 716.811 531.953 716.998 532.187 717.186C533.94 718.218 535.663 719.296 537.358 720.422C539.11 721.454 540.863 722.533 542.616 723.659C540.162 725.722 537.591 727.786 534.904 729.85C532.216 731.82 529.441 732.805 526.578 732.805C526.285 732.805 525.964 732.899 525.614 733.086C525.205 733.18 525 733.602 525 734.353Z" fill="#E73A3A"/>
<path d="M525 699.73C525 700.574 525.321 701.09 525.964 701.278C526.548 701.371 527.045 701.418 527.454 701.418C528.447 701.418 529.791 701.09 531.486 700.433C533.18 699.777 534.991 698.932 536.919 697.9C538.848 696.775 540.6 695.649 542.178 694.523C543.814 693.304 544.982 692.178 545.684 691.146C547.203 692.366 548.43 693.726 549.365 695.227C550.358 696.634 551.234 698.557 551.994 700.996C552.286 701.84 552.666 702.263 553.133 702.263C553.542 702.263 553.922 702.075 554.273 701.7C554.682 701.324 554.886 700.809 554.886 700.152C554.886 698.745 554.448 697.291 553.571 695.79C552.753 694.289 551.819 692.929 550.767 691.709C549.715 690.49 548.868 689.598 548.225 689.036C548.751 688.567 549.628 687.722 550.855 686.503C552.14 685.283 553.484 683.923 554.886 682.422C556.288 680.827 557.486 679.28 558.479 677.779C559.473 676.278 559.969 675.011 559.969 673.979C559.969 673.417 559.823 672.948 559.531 672.572C559.239 672.103 558.918 671.869 558.567 671.869C558.567 671.869 558.158 672.338 557.34 673.276C556.522 674.12 555.5 675.246 554.273 676.653C553.104 678.06 551.877 679.467 550.592 680.874C549.365 682.281 548.254 683.548 547.261 684.674C546.326 685.705 545.713 686.362 545.421 686.643C544.836 686.174 543.931 685.565 542.704 684.814C541.477 683.97 540.162 683.173 538.76 682.422C537.358 681.578 536.043 680.874 534.816 680.311C533.589 679.749 532.683 679.467 532.099 679.467C531.515 679.467 531.223 679.983 531.223 681.015C531.223 681.39 531.31 681.719 531.486 682C531.719 682.188 531.953 682.375 532.187 682.563C533.94 683.595 535.663 684.674 537.358 685.799C539.11 686.831 540.863 687.91 542.616 689.036C540.162 691.099 537.591 693.163 534.904 695.227C532.216 697.197 529.441 698.182 526.578 698.182C526.285 698.182 525.964 698.276 525.614 698.463C525.205 698.557 525 698.979 525 699.73Z" fill="#E73A3A"/>
<path d="M525 665.107C525 665.951 525.321 666.467 525.964 666.655C526.548 666.748 527.045 666.795 527.454 666.795C528.447 666.795 529.791 666.467 531.486 665.81C533.18 665.154 534.991 664.309 536.919 663.278C538.848 662.152 540.6 661.026 542.178 659.9C543.814 658.681 544.982 657.555 545.684 656.523C547.203 657.743 548.43 659.103 549.365 660.604C550.358 662.011 551.234 663.934 551.994 666.373C552.286 667.218 552.666 667.64 553.133 667.64C553.542 667.64 553.922 667.452 554.273 667.077C554.682 666.702 554.886 666.186 554.886 665.529C554.886 664.122 554.448 662.668 553.571 661.167C552.753 659.666 551.819 658.306 550.767 657.086C549.715 655.867 548.868 654.976 548.225 654.413C548.751 653.944 549.628 653.099 550.855 651.88C552.14 650.66 553.484 649.3 554.886 647.799C556.288 646.204 557.486 644.657 558.479 643.156C559.473 641.655 559.969 640.388 559.969 639.356C559.969 638.794 559.823 638.325 559.531 637.949C559.239 637.48 558.918 637.246 558.567 637.246C558.567 637.246 558.158 637.715 557.34 638.653C556.522 639.497 555.5 640.623 554.273 642.03C553.104 643.437 551.877 644.844 550.592 646.251C549.365 647.658 548.254 648.925 547.261 650.051C546.326 651.082 545.713 651.739 545.421 652.021C544.836 651.552 543.931 650.942 542.704 650.191C541.477 649.347 540.162 648.55 538.76 647.799C537.358 646.955 536.043 646.251 534.816 645.689C533.589 645.126 532.683 644.844 532.099 644.844C531.515 644.844 531.223 645.36 531.223 646.392C531.223 646.767 531.31 647.096 531.486 647.377C531.719 647.565 531.953 647.752 532.187 647.94C533.94 648.972 535.663 650.051 537.358 651.176C539.11 652.208 540.863 653.287 542.616 654.413C540.162 656.476 537.591 658.54 534.904 660.604C532.216 662.574 529.441 663.559 526.578 663.559C526.285 663.559 525.964 663.653 525.614 663.84C525.205 663.934 525 664.356 525 665.107Z" fill="#E73A3A"/>
<path d="M525 630.484C525 631.328 525.321 631.844 525.964 632.032C526.548 632.126 527.045 632.172 527.454 632.172C528.447 632.172 529.791 631.844 531.486 631.187C533.18 630.531 534.991 629.687 536.919 628.655C538.848 627.529 540.6 626.403 542.178 625.278C543.814 624.058 544.982 622.932 545.684 621.9C547.203 623.12 548.43 624.48 549.365 625.981C550.358 627.388 551.234 629.311 551.994 631.75C552.286 632.595 552.666 633.017 553.133 633.017C553.542 633.017 553.922 632.829 554.273 632.454C554.682 632.079 554.886 631.563 554.886 630.906C554.886 629.499 554.448 628.045 553.571 626.544C552.753 625.043 551.819 623.683 550.767 622.463C549.715 621.244 548.868 620.353 548.225 619.79C548.751 619.321 549.628 618.476 550.855 617.257C552.14 616.037 553.484 614.677 554.886 613.176C556.288 611.582 557.486 610.034 558.479 608.533C559.473 607.032 559.969 605.765 559.969 604.734C559.969 604.171 559.823 603.702 559.531 603.326C559.239 602.857 558.918 602.623 558.567 602.623C558.567 602.623 558.158 603.092 557.34 604.03C556.522 604.874 555.5 606 554.273 607.407C553.104 608.814 551.877 610.221 550.592 611.628C549.365 613.036 548.254 614.302 547.261 615.428C546.326 616.46 545.713 617.116 545.421 617.398C544.836 616.929 543.931 616.319 542.704 615.568C541.477 614.724 540.162 613.927 538.76 613.176C537.358 612.332 536.043 611.628 534.816 611.066C533.589 610.503 532.683 610.221 532.099 610.221C531.515 610.221 531.223 610.737 531.223 611.769C531.223 612.144 531.31 612.473 531.486 612.754C531.719 612.942 531.953 613.129 532.187 613.317C533.94 614.349 535.663 615.428 537.358 616.553C539.11 617.585 540.863 618.664 542.616 619.79C540.162 621.854 537.591 623.917 534.904 625.981C532.216 627.951 529.441 628.936 526.578 628.936C526.285 628.936 525.964 629.03 525.614 629.217C525.205 629.311 525 629.733 525 630.484Z" fill="#E73A3A"/>
<path d="M525 595.861C525 596.705 525.321 597.221 525.964 597.409C526.548 597.503 527.045 597.55 527.454 597.55C528.447 597.55 529.791 597.221 531.486 596.565C533.18 595.908 534.991 595.064 536.919 594.032C538.848 592.906 540.6 591.78 542.178 590.655C543.814 589.435 544.982 588.309 545.684 587.278C547.203 588.497 548.43 589.857 549.365 591.358C550.358 592.765 551.234 594.688 551.994 597.127C552.286 597.972 552.666 598.394 553.133 598.394C553.542 598.394 553.922 598.206 554.273 597.831C554.682 597.456 554.886 596.94 554.886 596.283C554.886 594.876 554.448 593.422 553.571 591.921C552.753 590.42 551.819 589.06 550.767 587.84C549.715 586.621 548.868 585.73 548.225 585.167C548.751 584.698 549.628 583.854 550.855 582.634C552.14 581.415 553.484 580.054 554.886 578.553C556.288 576.959 557.486 575.411 558.479 573.91C559.473 572.409 559.969 571.143 559.969 570.111C559.969 569.548 559.823 569.079 559.531 568.704C559.239 568.235 558.918 568 558.567 568C558.567 568 558.158 568.469 557.34 569.407C556.522 570.251 555.5 571.377 554.273 572.784C553.104 574.191 551.877 575.598 550.592 577.006C549.365 578.413 548.254 579.679 547.261 580.805C546.326 581.837 545.713 582.493 545.421 582.775C544.836 582.306 543.931 581.696 542.704 580.946C541.477 580.101 540.162 579.304 538.76 578.553C537.358 577.709 536.043 577.006 534.816 576.443C533.589 575.88 532.683 575.598 532.099 575.598C531.515 575.598 531.223 576.114 531.223 577.146C531.223 577.522 531.31 577.85 531.486 578.131C531.719 578.319 531.953 578.507 532.187 578.694C533.94 579.726 535.663 580.805 537.358 581.931C539.11 582.962 540.863 584.041 542.616 585.167C540.162 587.231 537.591 589.294 534.904 591.358C532.216 593.328 529.441 594.313 526.578 594.313C526.285 594.313 525.964 594.407 525.614 594.595C525.205 594.688 525 595.111 525 595.861Z" fill="#E73A3A"/>
<path d="M692 946.426C692 947.464 691.605 948.098 690.815 948.329C690.096 948.444 689.485 948.502 688.982 948.502C687.761 948.502 686.109 948.098 684.025 947.291C681.942 946.483 679.714 945.445 677.343 944.176C674.972 942.792 672.817 941.408 670.877 940.024C668.865 938.524 667.429 937.14 666.566 935.871C664.698 937.37 663.19 939.043 662.04 940.889C660.819 942.619 659.741 944.984 658.807 947.983C658.448 949.021 657.981 949.54 657.406 949.54C656.903 949.54 656.436 949.309 656.005 948.848C655.502 948.387 655.251 947.752 655.251 946.945C655.251 945.214 655.789 943.426 656.867 941.581C657.873 939.735 659.023 938.063 660.316 936.563C661.609 935.063 662.651 933.968 663.441 933.276C662.794 932.699 661.717 931.661 660.208 930.161C658.627 928.661 656.975 926.989 655.251 925.143C653.526 923.182 652.053 921.279 650.832 919.433C649.611 917.588 649 916.031 649 914.762C649 914.07 649.18 913.493 649.539 913.031C649.898 912.455 650.293 912.166 650.724 912.166C650.724 912.166 651.227 912.743 652.233 913.897C653.239 914.935 654.496 916.319 656.005 918.049C657.442 919.779 658.951 921.51 660.531 923.24C662.04 924.97 663.405 926.527 664.627 927.912C665.776 929.181 666.53 929.988 666.89 930.334C667.608 929.757 668.722 929.008 670.231 928.085C671.739 927.047 673.356 926.066 675.08 925.143C676.805 924.105 678.421 923.24 679.93 922.548C681.439 921.856 682.552 921.51 683.271 921.51C683.989 921.51 684.348 922.144 684.348 923.413C684.348 923.874 684.241 924.278 684.025 924.624C683.738 924.855 683.45 925.086 683.163 925.316C681.008 926.585 678.888 927.912 676.805 929.296C674.649 930.565 672.494 931.891 670.338 933.276C673.356 935.813 676.517 938.351 679.822 940.889C683.127 943.311 686.54 944.522 690.06 944.522C690.419 944.522 690.815 944.638 691.246 944.868C691.749 944.984 692 945.503 692 946.426Z" fill="#E73A3A"/>
<path d="M692 903.852C692 904.89 691.605 905.524 690.815 905.755C690.096 905.87 689.485 905.928 688.982 905.928C687.761 905.928 686.109 905.524 684.025 904.717C681.942 903.909 679.714 902.871 677.343 901.602C674.972 900.218 672.817 898.834 670.877 897.45C668.865 895.95 667.429 894.566 666.566 893.297C664.698 894.796 663.19 896.469 662.04 898.315C660.819 900.045 659.741 902.41 658.807 905.409C658.448 906.447 657.981 906.966 657.406 906.966C656.903 906.966 656.436 906.735 656.005 906.274C655.502 905.812 655.251 905.178 655.251 904.371C655.251 902.64 655.789 900.852 656.867 899.007C657.873 897.161 659.023 895.489 660.316 893.989C661.609 892.489 662.651 891.394 663.441 890.701C662.794 890.125 661.717 889.087 660.208 887.587C658.627 886.087 656.975 884.415 655.251 882.569C653.526 880.608 652.053 878.705 650.832 876.859C649.611 875.014 649 873.456 649 872.188C649 871.496 649.18 870.919 649.539 870.457C649.898 869.881 650.293 869.592 650.724 869.592C650.724 869.592 651.227 870.169 652.233 871.322C653.239 872.361 654.496 873.745 656.005 875.475C657.442 877.205 658.951 878.936 660.531 880.666C662.04 882.396 663.405 883.953 664.627 885.338C665.776 886.607 666.53 887.414 666.89 887.76C667.608 887.183 668.722 886.433 670.231 885.511C671.739 884.473 673.356 883.492 675.08 882.569C676.805 881.531 678.421 880.666 679.93 879.974C681.439 879.282 682.552 878.936 683.271 878.936C683.989 878.936 684.348 879.57 684.348 880.839C684.348 881.3 684.241 881.704 684.025 882.05C683.738 882.281 683.45 882.512 683.163 882.742C681.008 884.011 678.888 885.338 676.805 886.722C674.649 887.991 672.494 889.317 670.338 890.701C673.356 893.239 676.517 895.777 679.822 898.315C683.127 900.737 686.54 901.948 690.06 901.948C690.419 901.948 690.815 902.064 691.246 902.294C691.749 902.41 692 902.929 692 903.852Z" fill="#E73A3A"/>
<path d="M692 861.277C692 862.316 691.605 862.95 690.815 863.181C690.096 863.296 689.485 863.354 688.982 863.354C687.761 863.354 686.109 862.95 684.025 862.143C681.942 861.335 679.714 860.297 677.343 859.028C674.972 857.644 672.817 856.26 670.877 854.875C668.865 853.376 667.429 851.992 666.566 850.723C664.698 852.222 663.19 853.895 662.04 855.741C660.819 857.471 659.741 859.836 658.807 862.835C658.448 863.873 657.981 864.392 657.406 864.392C656.903 864.392 656.436 864.161 656.005 863.7C655.502 863.238 655.251 862.604 655.251 861.797C655.251 860.066 655.789 858.278 656.867 856.433C657.873 854.587 659.023 852.915 660.316 851.415C661.609 849.915 662.651 848.82 663.441 848.127C662.794 847.551 661.717 846.513 660.208 845.013C658.627 843.513 656.975 841.841 655.251 839.995C653.526 838.034 652.053 836.131 650.832 834.285C649.611 832.44 649 830.882 649 829.614C649 828.921 649.18 828.345 649.539 827.883C649.898 827.307 650.293 827.018 650.724 827.018C650.724 827.018 651.227 827.595 652.233 828.748C653.239 829.787 654.496 831.171 656.005 832.901C657.442 834.631 658.951 836.362 660.531 838.092C662.04 839.822 663.405 841.379 664.627 842.764C665.776 844.032 666.53 844.84 666.89 845.186C667.608 844.609 668.722 843.859 670.231 842.937C671.739 841.898 673.356 840.918 675.08 839.995C676.805 838.957 678.421 838.092 679.93 837.4C681.439 836.708 682.552 836.362 683.271 836.362C683.989 836.362 684.348 836.996 684.348 838.265C684.348 838.726 684.241 839.13 684.025 839.476C683.738 839.707 683.45 839.938 683.163 840.168C681.008 841.437 678.888 842.764 676.805 844.148C674.649 845.417 672.494 846.743 670.338 848.127C673.356 850.665 676.517 853.203 679.822 855.741C683.127 858.163 686.54 859.374 690.06 859.374C690.419 859.374 690.815 859.49 691.246 859.72C691.749 859.836 692 860.355 692 861.277Z" fill="#E73A3A"/>
<path d="M692 818.703C692 819.742 691.605 820.376 690.815 820.607C690.096 820.722 689.485 820.78 688.982 820.78C687.761 820.78 686.109 820.376 684.025 819.569C681.942 818.761 679.714 817.723 677.343 816.454C674.972 815.07 672.817 813.686 670.877 812.301C668.865 810.802 667.429 809.418 666.566 808.149C664.698 809.648 663.19 811.321 662.04 813.167C660.819 814.897 659.741 817.262 658.807 820.261C658.448 821.299 657.981 821.818 657.406 821.818C656.903 821.818 656.436 821.587 656.005 821.126C655.502 820.664 655.251 820.03 655.251 819.223C655.251 817.492 655.789 815.704 656.867 813.859C657.873 812.013 659.023 810.34 660.316 808.841C661.609 807.341 662.651 806.245 663.441 805.553C662.794 804.977 661.717 803.938 660.208 802.439C658.627 800.939 656.975 799.267 655.251 797.421C653.526 795.46 652.053 793.557 650.832 791.711C649.611 789.866 649 788.308 649 787.04C649 786.347 649.18 785.771 649.539 785.309C649.898 784.733 650.293 784.444 650.724 784.444C650.724 784.444 651.227 785.021 652.233 786.174C653.239 787.213 654.496 788.597 656.005 790.327C657.442 792.057 658.951 793.788 660.531 795.518C662.04 797.248 663.405 798.805 664.627 800.19C665.776 801.458 666.53 802.266 666.89 802.612C667.608 802.035 668.722 801.285 670.231 800.363C671.739 799.324 673.356 798.344 675.08 797.421C676.805 796.383 678.421 795.518 679.93 794.826C681.439 794.134 682.552 793.788 683.271 793.788C683.989 793.788 684.348 794.422 684.348 795.691C684.348 796.152 684.241 796.556 684.025 796.902C683.738 797.133 683.45 797.363 683.163 797.594C681.008 798.863 678.888 800.19 676.805 801.574C674.649 802.843 672.494 804.169 670.338 805.553C673.356 808.091 676.517 810.629 679.822 813.167C683.127 815.589 686.54 816.8 690.06 816.8C690.419 816.8 690.815 816.915 691.246 817.146C691.749 817.262 692 817.781 692 818.703Z" fill="#E73A3A"/>
<path d="M692 776.129C692 777.168 691.605 777.802 690.815 778.033C690.096 778.148 689.485 778.206 688.982 778.206C687.761 778.206 686.109 777.802 684.025 776.995C681.942 776.187 679.714 775.149 677.343 773.88C674.972 772.496 672.817 771.112 670.877 769.727C668.865 768.228 667.429 766.844 666.566 765.575C664.698 767.074 663.19 768.747 662.04 770.593C660.819 772.323 659.741 774.688 658.807 777.687C658.448 778.725 657.981 779.244 657.406 779.244C656.903 779.244 656.436 779.013 656.005 778.552C655.502 778.09 655.251 777.456 655.251 776.648C655.251 774.918 655.789 773.13 656.867 771.285C657.873 769.439 659.023 767.766 660.316 766.267C661.609 764.767 662.651 763.671 663.441 762.979C662.794 762.403 661.717 761.364 660.208 759.865C658.627 758.365 656.975 756.693 655.251 754.847C653.526 752.886 652.053 750.983 650.832 749.137C649.611 747.292 649 745.734 649 744.466C649 743.773 649.18 743.197 649.539 742.735C649.898 742.158 650.293 741.87 650.724 741.87C650.724 741.87 651.227 742.447 652.233 743.6C653.239 744.639 654.496 746.023 656.005 747.753C657.442 749.483 658.951 751.214 660.531 752.944C662.04 754.674 663.405 756.231 664.627 757.616C665.776 758.884 666.53 759.692 666.89 760.038C667.608 759.461 668.722 758.711 670.231 757.789C671.739 756.75 673.356 755.77 675.08 754.847C676.805 753.809 678.421 752.944 679.93 752.252C681.439 751.56 682.552 751.214 683.271 751.214C683.989 751.214 684.348 751.848 684.348 753.117C684.348 753.578 684.241 753.982 684.025 754.328C683.738 754.559 683.45 754.789 683.163 755.02C681.008 756.289 678.888 757.616 676.805 759C674.649 760.269 672.494 761.595 670.338 762.979C673.356 765.517 676.517 768.055 679.822 770.593C683.127 773.015 686.54 774.226 690.06 774.226C690.419 774.226 690.815 774.341 691.246 774.572C691.749 774.688 692 775.207 692 776.129Z" fill="#E73A3A"/>
<path d="M692 733.555C692 734.594 691.605 735.228 690.815 735.459C690.096 735.574 689.485 735.632 688.982 735.632C687.761 735.632 686.109 735.228 684.025 734.421C681.942 733.613 679.714 732.575 677.343 731.306C674.972 729.922 672.817 728.538 670.877 727.153C668.865 725.654 667.429 724.27 666.566 723.001C664.698 724.5 663.19 726.173 662.04 728.019C660.819 729.749 659.741 732.113 658.807 735.113C658.448 736.151 657.981 736.67 657.406 736.67C656.903 736.67 656.436 736.439 656.005 735.978C655.502 735.516 655.251 734.882 655.251 734.074C655.251 732.344 655.789 730.556 656.867 728.711C657.873 726.865 659.023 725.192 660.316 723.693C661.609 722.193 662.651 721.097 663.441 720.405C662.794 719.829 661.717 718.79 660.208 717.291C658.627 715.791 656.975 714.119 655.251 712.273C653.526 710.312 652.053 708.409 650.832 706.563C649.611 704.718 649 703.16 649 701.891C649 701.199 649.18 700.623 649.539 700.161C649.898 699.584 650.293 699.296 650.724 699.296C650.724 699.296 651.227 699.873 652.233 701.026C653.239 702.064 654.496 703.449 656.005 705.179C657.442 706.909 658.951 708.64 660.531 710.37C662.04 712.1 663.405 713.657 664.627 715.042C665.776 716.31 666.53 717.118 666.89 717.464C667.608 716.887 668.722 716.137 670.231 715.215C671.739 714.176 673.356 713.196 675.08 712.273C676.804 711.235 678.421 710.37 679.93 709.678C681.439 708.986 682.552 708.64 683.271 708.64C683.989 708.64 684.348 709.274 684.348 710.543C684.348 711.004 684.241 711.408 684.025 711.754C683.738 711.985 683.45 712.215 683.163 712.446C681.008 713.715 678.888 715.042 676.804 716.426C674.649 717.695 672.494 719.021 670.338 720.405C673.356 722.943 676.517 725.481 679.822 728.019C683.127 730.441 686.54 731.652 690.06 731.652C690.419 731.652 690.815 731.767 691.246 731.998C691.749 732.113 692 732.633 692 733.555Z" fill="#E73A3A"/>
<path d="M692 690.981C692 692.019 691.605 692.654 690.815 692.885C690.096 693 689.485 693.058 688.982 693.058C687.761 693.058 686.109 692.654 684.025 691.846C681.942 691.039 679.714 690.001 677.343 688.732C674.972 687.348 672.817 685.964 670.877 684.579C668.865 683.08 667.429 681.696 666.566 680.427C664.698 681.926 663.19 683.599 662.04 685.444C660.819 687.175 659.741 689.539 658.807 692.539C658.448 693.577 657.981 694.096 657.406 694.096C656.903 694.096 656.436 693.865 656.005 693.404C655.502 692.942 655.251 692.308 655.251 691.5C655.251 689.77 655.789 687.982 656.867 686.137C657.873 684.291 659.023 682.618 660.316 681.119C661.609 679.619 662.651 678.523 663.441 677.831C662.794 677.255 661.717 676.216 660.208 674.717C658.627 673.217 656.975 671.545 655.251 669.699C653.526 667.738 652.053 665.835 650.832 663.989C649.611 662.144 649 660.586 649 659.317C649 658.625 649.18 658.049 649.539 657.587C649.898 657.01 650.293 656.722 650.724 656.722C650.724 656.722 651.227 657.299 652.233 658.452C653.239 659.49 654.496 660.875 656.005 662.605C657.442 664.335 658.951 666.065 660.531 667.796C662.04 669.526 663.405 671.083 664.627 672.467C665.776 673.736 666.53 674.544 666.89 674.89C667.608 674.313 668.722 673.563 670.231 672.641C671.739 671.602 673.356 670.622 675.08 669.699C676.804 668.661 678.421 667.796 679.93 667.104C681.439 666.412 682.552 666.065 683.271 666.065C683.989 666.065 684.348 666.7 684.348 667.969C684.348 668.43 684.241 668.834 684.025 669.18C683.738 669.411 683.45 669.641 683.163 669.872C681.008 671.141 678.888 672.467 676.804 673.852C674.649 675.121 672.494 676.447 670.338 677.831C673.356 680.369 676.517 682.907 679.822 685.444C683.127 687.867 686.54 689.078 690.06 689.078C690.419 689.078 690.815 689.193 691.246 689.424C691.749 689.539 692 690.059 692 690.981Z" fill="#E73A3A"/>
<path d="M692 648.407C692 649.445 691.605 650.08 690.815 650.311C690.096 650.426 689.485 650.484 688.982 650.484C687.761 650.484 686.109 650.08 684.025 649.272C681.942 648.465 679.714 647.427 677.343 646.158C674.972 644.774 672.817 643.389 670.877 642.005C668.865 640.506 667.429 639.121 666.566 637.853C664.698 639.352 663.19 641.025 662.04 642.87C660.819 644.601 659.741 646.965 658.807 649.965C658.448 651.003 657.981 651.522 657.406 651.522C656.903 651.522 656.436 651.291 656.005 650.83C655.502 650.368 655.251 649.734 655.251 648.926C655.251 647.196 655.789 645.408 656.867 643.563C657.873 641.717 659.023 640.044 660.316 638.545C661.609 637.045 662.651 635.949 663.441 635.257C662.794 634.681 661.717 633.642 660.208 632.143C658.627 630.643 656.975 628.971 655.251 627.125C653.526 625.164 652.053 623.261 650.832 621.415C649.611 619.569 649 618.012 649 616.743C649 616.051 649.18 615.475 649.539 615.013C649.898 614.436 650.293 614.148 650.724 614.148C650.724 614.148 651.227 614.725 652.233 615.878C653.239 616.916 654.496 618.301 656.005 620.031C657.442 621.761 658.951 623.491 660.531 625.222C662.04 626.952 663.405 628.509 664.627 629.893C665.776 631.162 666.53 631.97 666.89 632.316C667.608 631.739 668.722 630.989 670.231 630.066C671.739 629.028 673.356 628.048 675.08 627.125C676.804 626.087 678.421 625.222 679.93 624.53C681.439 623.837 682.552 623.491 683.271 623.491C683.989 623.491 684.348 624.126 684.348 625.395C684.348 625.856 684.241 626.26 684.025 626.606C683.738 626.837 683.45 627.067 683.163 627.298C681.008 628.567 678.888 629.893 676.804 631.278C674.649 632.546 672.494 633.873 670.338 635.257C673.356 637.795 676.517 640.333 679.822 642.87C683.127 645.293 686.54 646.504 690.06 646.504C690.419 646.504 690.815 646.619 691.246 646.85C691.749 646.965 692 647.484 692 648.407Z" fill="#E73A3A"/>
<path d="M692 605.833C692 606.871 691.605 607.506 690.815 607.737C690.096 607.852 689.485 607.91 688.982 607.91C687.761 607.91 686.109 607.506 684.025 606.698C681.942 605.891 679.714 604.853 677.343 603.584C674.972 602.2 672.817 600.815 670.877 599.431C668.865 597.932 667.429 596.547 666.566 595.279C664.698 596.778 663.19 598.451 662.04 600.296C660.819 602.027 659.741 604.391 658.807 607.391C658.448 608.429 657.981 608.948 657.406 608.948C656.903 608.948 656.436 608.717 656.005 608.256C655.502 607.794 655.251 607.16 655.251 606.352C655.251 604.622 655.789 602.834 656.867 600.988C657.873 599.143 659.023 597.47 660.316 595.971C661.609 594.471 662.651 593.375 663.441 592.683C662.794 592.106 661.717 591.068 660.208 589.569C658.627 588.069 656.975 586.397 655.251 584.551C653.526 582.59 652.053 580.687 650.832 578.841C649.611 576.995 649 575.438 649 574.169C649 573.477 649.18 572.9 649.539 572.439C649.898 571.862 650.293 571.574 650.724 571.574C650.724 571.574 651.227 572.151 652.233 573.304C653.239 574.342 654.496 575.727 656.005 577.457C657.442 579.187 658.951 580.917 660.531 582.648C662.04 584.378 663.405 585.935 664.627 587.319C665.776 588.588 666.53 589.396 666.89 589.742C667.608 589.165 668.722 588.415 670.231 587.492C671.739 586.454 673.356 585.474 675.08 584.551C676.804 583.513 678.421 582.648 679.93 581.956C681.439 581.263 682.552 580.917 683.271 580.917C683.989 580.917 684.348 581.552 684.348 582.821C684.348 583.282 684.241 583.686 684.025 584.032C683.738 584.263 683.45 584.493 683.163 584.724C681.007 585.993 678.888 587.319 676.804 588.704C674.649 589.972 672.494 591.299 670.338 592.683C673.356 595.221 676.517 597.759 679.822 600.296C683.127 602.719 686.54 603.93 690.06 603.93C690.419 603.93 690.815 604.045 691.246 604.276C691.749 604.391 692 604.91 692 605.833Z" fill="#E73A3A"/>
<path d="M692 563.259C692 564.297 691.605 564.932 690.815 565.163C690.096 565.278 689.485 565.336 688.982 565.336C687.761 565.336 686.109 564.932 684.025 564.124C681.942 563.317 679.714 562.279 677.343 561.01C674.972 559.626 672.817 558.241 670.877 556.857C668.865 555.358 667.429 553.973 666.566 552.705C664.698 554.204 663.19 555.877 662.04 557.722C660.819 559.453 659.741 561.817 658.807 564.816C658.448 565.855 657.981 566.374 657.406 566.374C656.903 566.374 656.436 566.143 656.005 565.682C655.502 565.22 655.251 564.586 655.251 563.778C655.251 562.048 655.789 560.26 656.867 558.414C657.873 556.569 659.023 554.896 660.316 553.397C661.609 551.897 662.651 550.801 663.441 550.109C662.794 549.532 661.717 548.494 660.208 546.995C658.627 545.495 656.975 543.823 655.251 541.977C653.526 540.016 652.053 538.113 650.832 536.267C649.611 534.421 649 532.864 649 531.595C649 530.903 649.18 530.326 649.539 529.865C649.898 529.288 650.293 529 650.724 529C650.724 529 651.227 529.577 652.233 530.73C653.239 531.768 654.496 533.153 656.005 534.883C657.442 536.613 658.951 538.343 660.531 540.074C662.04 541.804 663.405 543.361 664.627 544.745C665.776 546.014 666.53 546.822 666.89 547.168C667.608 546.591 668.722 545.841 670.231 544.918C671.739 543.88 673.356 542.9 675.08 541.977C676.804 540.939 678.421 540.074 679.93 539.382C681.439 538.689 682.552 538.343 683.271 538.343C683.989 538.343 684.348 538.978 684.348 540.247C684.348 540.708 684.241 541.112 684.025 541.458C683.738 541.689 683.45 541.919 683.163 542.15C681.007 543.419 678.888 544.745 676.804 546.13C674.649 547.398 672.494 548.725 670.338 550.109C673.356 552.647 676.517 555.185 679.822 557.722C683.127 560.145 686.54 561.356 690.06 561.356C690.419 561.356 690.815 561.471 691.246 561.702C691.749 561.817 692 562.336 692 563.259Z" fill="#E73A3A"/>
<path d="M692 733.555C692 734.594 691.605 735.228 690.815 735.459C690.096 735.574 689.485 735.632 688.982 735.632C687.761 735.632 686.109 735.228 684.025 734.421C681.942 733.613 679.714 732.575 677.343 731.306C674.972 729.922 672.817 728.538 670.877 727.153C668.865 725.654 667.429 724.27 666.566 723.001C664.698 724.5 663.19 726.173 662.04 728.019C660.819 729.749 659.741 732.113 658.807 735.113C658.448 736.151 657.981 736.67 657.406 736.67C656.903 736.67 656.436 736.439 656.005 735.978C655.502 735.516 655.251 734.882 655.251 734.074C655.251 732.344 655.789 730.556 656.867 728.711C657.873 726.865 659.023 725.192 660.316 723.693C661.609 722.193 662.651 721.097 663.441 720.405C662.794 719.829 661.717 718.79 660.208 717.291C658.627 715.791 656.975 714.119 655.251 712.273C653.526 710.312 652.053 708.409 650.832 706.563C649.611 704.718 649 703.16 649 701.891C649 701.199 649.18 700.623 649.539 700.161C649.898 699.584 650.293 699.296 650.724 699.296C650.724 699.296 651.227 699.873 652.233 701.026C653.239 702.064 654.496 703.449 656.005 705.179C657.442 706.909 658.951 708.64 660.531 710.37C662.04 712.1 663.405 713.657 664.627 715.042C665.776 716.31 666.53 717.118 666.89 717.464C667.608 716.887 668.722 716.137 670.231 715.215C671.739 714.176 673.356 713.196 675.08 712.273C676.804 711.235 678.421 710.37 679.93 709.678C681.439 708.986 682.552 708.64 683.271 708.64C683.989 708.64 684.348 709.274 684.348 710.543C684.348 711.004 684.241 711.408 684.025 711.754C683.738 711.985 683.45 712.215 683.163 712.446C681.008 713.715 678.888 715.042 676.804 716.426C674.649 717.695 672.494 719.021 670.338 720.405C673.356 722.943 676.517 725.481 679.822 728.019C683.127 730.441 686.54 731.652 690.06 731.652C690.419 731.652 690.815 731.767 691.246 731.998C691.749 732.113 692 732.633 692 733.555Z" fill="#E73A3A"/>
<path d="M692 690.981C692 692.019 691.605 692.654 690.815 692.885C690.096 693 689.485 693.058 688.982 693.058C687.761 693.058 686.109 692.654 684.025 691.846C681.942 691.039 679.714 690.001 677.343 688.732C674.972 687.348 672.817 685.964 670.877 684.579C668.865 683.08 667.429 681.696 666.566 680.427C664.698 681.926 663.19 683.599 662.04 685.445C660.819 687.175 659.741 689.539 658.807 692.539C658.448 693.577 657.981 694.096 657.406 694.096C656.903 694.096 656.436 693.865 656.005 693.404C655.502 692.942 655.251 692.308 655.251 691.5C655.251 689.77 655.789 687.982 656.867 686.137C657.873 684.291 659.023 682.618 660.316 681.119C661.609 679.619 662.651 678.523 663.441 677.831C662.794 677.255 661.717 676.216 660.208 674.717C658.627 673.217 656.975 671.545 655.251 669.699C653.526 667.738 652.053 665.835 650.832 663.989C649.611 662.144 649 660.586 649 659.317C649 658.625 649.18 658.049 649.539 657.587C649.898 657.01 650.293 656.722 650.724 656.722C650.724 656.722 651.227 657.299 652.233 658.452C653.239 659.49 654.496 660.875 656.005 662.605C657.442 664.335 658.951 666.065 660.531 667.796C662.04 669.526 663.405 671.083 664.627 672.467C665.776 673.736 666.53 674.544 666.89 674.89C667.608 674.313 668.722 673.563 670.231 672.641C671.739 671.602 673.356 670.622 675.08 669.699C676.804 668.661 678.421 667.796 679.93 667.104C681.439 666.412 682.552 666.065 683.271 666.065C683.989 666.065 684.348 666.7 684.348 667.969C684.348 668.43 684.241 668.834 684.025 669.18C683.738 669.411 683.45 669.641 683.163 669.872C681.008 671.141 678.888 672.467 676.804 673.852C674.649 675.121 672.494 676.447 670.338 677.831C673.356 680.369 676.517 682.907 679.822 685.445C683.127 687.867 686.54 689.078 690.06 689.078C690.419 689.078 690.815 689.193 691.246 689.424C691.749 689.539 692 690.059 692 690.981Z" fill="#E73A3A"/>
<path d="M692 648.407C692 649.445 691.605 650.08 690.815 650.311C690.096 650.426 689.485 650.484 688.982 650.484C687.761 650.484 686.109 650.08 684.025 649.272C681.942 648.465 679.714 647.427 677.343 646.158C674.972 644.774 672.817 643.389 670.877 642.005C668.865 640.506 667.429 639.121 666.566 637.853C664.698 639.352 663.19 641.025 662.04 642.87C660.819 644.601 659.741 646.965 658.807 649.965C658.448 651.003 657.981 651.522 657.406 651.522C656.903 651.522 656.436 651.291 656.005 650.83C655.502 650.368 655.251 649.734 655.251 648.926C655.251 647.196 655.789 645.408 656.867 643.563C657.873 641.717 659.023 640.044 660.316 638.545C661.609 637.045 662.651 635.949 663.441 635.257C662.794 634.681 661.717 633.642 660.208 632.143C658.627 630.643 656.975 628.971 655.251 627.125C653.526 625.164 652.053 623.261 650.832 621.415C649.611 619.57 649 618.012 649 616.743C649 616.051 649.18 615.475 649.539 615.013C649.898 614.436 650.293 614.148 650.724 614.148C650.724 614.148 651.227 614.725 652.233 615.878C653.239 616.916 654.496 618.301 656.005 620.031C657.442 621.761 658.951 623.491 660.531 625.222C662.04 626.952 663.405 628.509 664.627 629.893C665.776 631.162 666.53 631.97 666.89 632.316C667.608 631.739 668.722 630.989 670.231 630.066C671.739 629.028 673.356 628.048 675.08 627.125C676.804 626.087 678.421 625.222 679.93 624.53C681.439 623.838 682.552 623.491 683.271 623.491C683.989 623.491 684.348 624.126 684.348 625.395C684.348 625.856 684.241 626.26 684.025 626.606C683.738 626.837 683.45 627.067 683.163 627.298C681.008 628.567 678.888 629.893 676.804 631.278C674.649 632.547 672.494 633.873 670.338 635.257C673.356 637.795 676.517 640.333 679.822 642.87C683.127 645.293 686.54 646.504 690.06 646.504C690.419 646.504 690.815 646.619 691.246 646.85C691.749 646.965 692 647.484 692 648.407Z" fill="#E73A3A"/>
<path d="M692 605.833C692 606.871 691.605 607.506 690.815 607.737C690.096 607.852 689.485 607.91 688.982 607.91C687.761 607.91 686.109 607.506 684.025 606.698C681.942 605.891 679.714 604.853 677.343 603.584C674.972 602.2 672.817 600.815 670.877 599.431C668.865 597.932 667.429 596.548 666.566 595.279C664.698 596.778 663.19 598.451 662.04 600.296C660.819 602.027 659.741 604.391 658.807 607.391C658.448 608.429 657.981 608.948 657.406 608.948C656.903 608.948 656.436 608.717 656.005 608.256C655.502 607.794 655.251 607.16 655.251 606.352C655.251 604.622 655.789 602.834 656.867 600.989C657.873 599.143 659.023 597.47 660.316 595.971C661.609 594.471 662.651 593.375 663.441 592.683C662.794 592.106 661.717 591.068 660.208 589.569C658.627 588.069 656.975 586.397 655.251 584.551C653.526 582.59 652.053 580.687 650.832 578.841C649.611 576.995 649 575.438 649 574.169C649 573.477 649.18 572.901 649.539 572.439C649.898 571.862 650.293 571.574 650.724 571.574C650.724 571.574 651.227 572.151 652.233 573.304C653.239 574.342 654.496 575.727 656.005 577.457C657.442 579.187 658.951 580.917 660.531 582.648C662.04 584.378 663.405 585.935 664.627 587.319C665.776 588.588 666.53 589.396 666.89 589.742C667.608 589.165 668.722 588.415 670.231 587.492C671.739 586.454 673.356 585.474 675.08 584.551C676.804 583.513 678.421 582.648 679.93 581.956C681.439 581.263 682.552 580.917 683.271 580.917C683.989 580.917 684.348 581.552 684.348 582.821C684.348 583.282 684.241 583.686 684.025 584.032C683.738 584.263 683.45 584.493 683.163 584.724C681.007 585.993 678.888 587.319 676.804 588.704C674.649 589.972 672.494 591.299 670.338 592.683C673.356 595.221 676.517 597.759 679.822 600.296C683.127 602.719 686.54 603.93 690.06 603.93C690.419 603.93 690.815 604.045 691.246 604.276C691.749 604.391 692 604.91 692 605.833Z" fill="#E73A3A"/>
<path d="M692 563.259C692 564.297 691.605 564.932 690.815 565.163C690.096 565.278 689.485 565.336 688.982 565.336C687.761 565.336 686.109 564.932 684.025 564.124C681.942 563.317 679.714 562.279 677.343 561.01C674.972 559.626 672.817 558.241 670.877 556.857C668.865 555.358 667.429 553.973 666.566 552.705C664.698 554.204 663.19 555.877 662.04 557.722C660.819 559.453 659.741 561.817 658.807 564.816C658.448 565.855 657.981 566.374 657.406 566.374C656.903 566.374 656.436 566.143 656.005 565.682C655.502 565.22 655.251 564.586 655.251 563.778C655.251 562.048 655.789 560.26 656.867 558.414C657.873 556.569 659.023 554.896 660.316 553.397C661.609 551.897 662.651 550.801 663.441 550.109C662.794 549.532 661.717 548.494 660.208 546.995C658.627 545.495 656.975 543.823 655.251 541.977C653.526 540.016 652.053 538.113 650.832 536.267C649.611 534.421 649 532.864 649 531.595C649 530.903 649.18 530.326 649.539 529.865C649.898 529.288 650.293 529 650.724 529C650.724 529 651.227 529.577 652.233 530.73C653.239 531.768 654.496 533.153 656.005 534.883C657.442 536.613 658.951 538.343 660.531 540.074C662.04 541.804 663.405 543.361 664.627 544.745C665.776 546.014 666.53 546.822 666.89 547.168C667.608 546.591 668.722 545.841 670.231 544.918C671.739 543.88 673.356 542.9 675.08 541.977C676.804 540.939 678.421 540.074 679.93 539.382C681.439 538.689 682.552 538.343 683.271 538.343C683.989 538.343 684.348 538.978 684.348 540.247C684.348 540.708 684.241 541.112 684.025 541.458C683.738 541.689 683.45 541.919 683.163 542.15C681.007 543.419 678.888 544.745 676.804 546.13C674.649 547.398 672.494 548.725 670.338 550.109C673.356 552.647 676.517 555.185 679.822 557.722C683.127 560.145 686.54 561.356 690.06 561.356C690.419 561.356 690.815 561.471 691.246 561.702C691.749 561.817 692 562.336 692 563.259Z" fill="#E73A3A"/>
<path d="M714.4 569.847L699.994 585.33L723.24 582.805L714.4 569.847Z" fill="#1A1A1A"/>
<path d="M749.657 640.601C749.657 640.601 695.255 612.934 623.817 625.72C574.011 634.64 493.463 673.139 471.528 714.36C449.597 755.578 466.886 800.155 482.015 807.467C506.716 819.399 544.717 776.916 558.192 761.555C571.664 746.189 572.696 735.625 572.696 735.625C572.696 735.625 558.006 773.271 581.517 778.891C605.021 784.508 655.28 706.432 655.28 706.432C655.28 706.432 647.886 743.166 665.354 750.673C682.825 758.185 737.618 687.995 737.618 687.995C737.618 687.995 732.42 733.113 733.225 755.532C734.029 777.952 750.511 818.649 751.457 833.072C752.4 847.49 745.945 873.38 735.593 893.204C725.24 913.023 679.588 960.628 673.373 972.519C667.165 984.411 670.884 1000.48 678.812 1004.62C686.736 1008.76 718.843 980.523 718.843 980.523C718.843 980.523 702.563 1019.05 721.151 1030.98C739.744 1042.91 758.732 1010.03 764.064 1002.53C769.398 995.021 780.769 962.816 780.769 962.816C780.769 962.816 767.748 1020.6 788.936 1021.37C810.13 1022.14 825.468 946.399 825.468 946.399C825.468 946.399 833.956 986.96 857.813 972.579C881.671 958.197 845.996 916.762 848.736 897.602C851.478 878.447 866.382 842.458 876.642 812.879C895.626 758.136 883.883 715.307 879.11 695.699C863.462 631.423 847.511 627.525 847.511 627.525C847.511 627.525 920.198 657.215 948.128 638.908C976.056 620.595 945.846 599.16 945.846 599.16C945.846 599.16 992.932 639.295 1017.39 613.723C1041.85 588.151 1012.58 563.299 1012.58 563.299C1012.58 563.299 1111.19 605.704 1124.01 564.631C1140.25 512.547 1053.59 483.553 1007.58 484.975C979.01 485.86 926.239 502.535 883.467 533.235C863.631 547.47 813.623 598.119 813.623 598.119L749.657 640.601Z" fill="#1A1A1A"/>
<path d="M740.61 609.233C740.61 609.233 744.178 678.908 750.877 707.434C757.574 735.956 788.302 785.712 830.579 770.454C872.859 755.2 870.868 663.946 861.994 645.384C853.12 626.823 832.426 598.054 819.132 580.611C805.835 563.174 740.61 609.233 740.61 609.233Z" fill="white"/>
<path d="M762.505 570.011C738.192 583.342 733.104 603.897 737.277 616.776C741.447 629.652 747.273 639.755 755.343 635.897C763.413 632.039 769.415 609.34 769.415 609.34C769.415 609.34 780.253 629.938 790.324 626.113C800.39 622.29 794.889 594.186 794.889 594.186C794.889 594.186 801.41 609.908 816.286 605.771C831.162 601.634 827.278 584.842 808.117 570.018C783.277 550.796 776.649 562.259 762.505 570.011Z" fill="#1A1A1A"/>
<path d="M770.388 586.037C748.816 598.758 725.902 598.056 712.902 579.158C699.902 560.26 712.113 533.273 732.554 523.5C752.995 513.728 778.439 522.712 786.153 538.847C793.869 554.987 794.103 572.059 770.388 586.037Z" fill="white"/>
<path d="M733.077 524.593C722.01 529.884 713.159 540.546 709.99 552.416C707.464 561.877 708.849 571.129 713.897 578.468C725.813 595.789 747.231 598.289 769.769 584.996C789.519 573.354 794.378 558.859 785.06 539.369C777.929 524.454 753.668 514.748 733.077 524.593ZM765.308 590.121C756.037 594.553 746.808 596.459 738.318 595.662C727.45 594.637 718.316 589.164 711.904 579.844C706.443 571.909 704.933 561.947 707.647 551.788C710.996 539.254 720.343 527.995 732.031 522.407C753.853 511.975 779.636 522.394 787.251 538.322C797.084 558.89 791.769 574.842 771.004 587.085C769.107 588.2 767.206 589.213 765.308 590.121Z" fill="#1A1A1A"/>
<path d="M542.046 694.42C542.046 694.42 457.49 755.335 491.259 776.198C525.029 797.065 542.046 694.42 542.046 694.42Z" fill="white"/>
<path d="M634.244 674.307C634.244 674.307 563.932 729.072 592.697 746.383C621.463 763.694 634.244 674.307 634.244 674.307Z" fill="white"/>
<path d="M708.783 660.502C708.783 660.502 643.409 707.471 676.879 719.951C710.345 732.433 708.783 660.502 708.783 660.502Z" fill="white"/>
<path d="M1105.05 554.907C1095.14 584.05 1015.03 532.512 1015.03 532.512C1015.03 532.512 1116.58 520.971 1105.05 554.907Z" fill="white"/>
<path d="M928.505 568.469C928.505 568.469 1021.42 562.379 1011.2 597.669C1002.85 626.492 928.505 568.469 928.505 568.469Z" fill="white"/>
<path d="M861.291 603.383C861.291 603.383 943.005 597.358 933.927 628.137C924.846 658.911 861.291 603.383 861.291 603.383Z" fill="white"/>
<path d="M527.47 719.233C527.47 719.233 483.662 753.396 500.57 762.491C517.476 771.593 527.47 719.233 527.47 719.233Z" fill="#1A1A1A"/>
<path d="M619.086 702.043C619.086 702.043 584.679 732.373 598.127 741.142C611.569 749.914 619.086 702.043 619.086 702.043Z" fill="#1A1A1A"/>
<path d="M698.239 678.954C698.239 678.954 666.079 702.918 683.243 712.562C700.41 722.198 698.239 678.954 698.239 678.954Z" fill="#1A1A1A"/>
<path d="M879.063 608.765C879.063 608.765 928.408 608.301 923.054 624.74C917.695 641.182 879.063 608.765 879.063 608.765Z" fill="#1A1A1A"/>
<path d="M945.74 574.109C945.74 574.109 1007.37 573.063 999.834 591.869C992.303 610.668 945.74 574.109 945.74 574.109Z" fill="#1A1A1A"/>
<path d="M1035.78 535.813C1035.78 535.813 1095.06 531.257 1093.4 549.901C1091.74 568.54 1035.78 535.813 1035.78 535.813Z" fill="#1A1A1A"/>
<path d="M593.012 671.755C586.921 674.667 591.438 684.141 597.539 681.224C603.635 678.309 599.117 668.836 593.012 671.755Z" fill="white"/>
<path d="M680.353 636.375C674.262 639.287 678.779 648.761 684.88 645.844C690.976 642.93 686.458 633.456 680.353 636.375Z" fill="white"/>
<path d="M547.059 662.91C540.963 665.825 545.481 675.298 551.586 672.379C557.677 669.467 553.16 659.994 547.059 662.91Z" fill="white"/>
<path d="M882.846 557.285C876.749 560.2 881.267 569.674 887.373 566.755C893.464 563.842 888.946 554.369 882.846 557.285Z" fill="white"/>
<path d="M974.078 497.82C967.987 500.732 972.505 510.206 978.605 507.289C984.702 504.374 980.184 494.901 974.078 497.82Z" fill="white"/>
<path d="M1068.11 507.465C1062.02 510.379 1066.53 519.853 1072.64 516.934C1078.73 514.021 1074.21 504.548 1068.11 507.465Z" fill="white"/>
<path d="M946.237 537.245C940.146 540.158 944.664 549.631 950.764 546.714C956.86 543.8 952.343 534.326 946.237 537.245Z" fill="white"/>
<path d="M778.647 654.459C781.275 659.957 779.187 666.425 773.986 668.911C768.79 671.395 762.445 668.959 759.817 663.462C757.188 657.964 759.276 651.496 764.473 649.012C769.674 646.525 776.018 648.961 778.647 654.459Z" fill="#1A1A1A"/>
<path d="M840.719 628.087C843.347 633.585 841.26 640.053 836.063 642.537C830.862 645.023 824.518 642.587 821.889 637.09C819.261 631.592 821.346 625.12 826.547 622.633C831.743 620.149 838.091 622.589 840.719 628.087Z" fill="#1A1A1A"/>
<path d="M819.733 668.524C822.36 674.017 820.279 680.487 815.078 682.973C809.877 685.46 803.535 683.017 800.908 677.524C798.28 672.026 800.361 665.556 805.562 663.07C810.763 660.583 817.105 663.026 819.733 668.524Z" fill="#1A1A1A"/>
<path d="M796.296 712.112C798.923 717.605 796.837 724.077 791.636 726.564C786.44 729.048 780.093 726.608 777.466 721.115C774.838 715.617 776.924 709.144 782.12 706.66C787.321 704.174 793.668 706.614 796.296 712.112Z" fill="#1A1A1A"/>
<path d="M831.094 735.128C833.722 740.625 831.635 747.093 826.434 749.58C821.237 752.064 814.893 749.628 812.264 744.13C809.636 738.633 811.724 732.165 816.92 729.68C822.121 727.194 828.466 729.63 831.094 735.128Z" fill="#1A1A1A"/>
<path d="M855.349 690.489C857.975 695.982 855.894 702.452 850.693 704.939C845.497 707.423 839.15 704.982 836.523 699.489C833.895 693.991 835.981 687.519 841.177 685.035C846.378 682.548 852.72 684.991 855.349 690.489Z" fill="#1A1A1A"/>
<path d="M504.622 747.468C498.526 750.382 503.043 759.856 509.149 756.937C515.24 754.025 510.722 744.551 504.622 747.468Z" fill="white"/>
<path d="M601.125 725.297C595.029 728.211 599.549 737.69 605.655 734.771C611.746 731.858 607.226 722.38 601.125 725.297Z" fill="white"/>
<path d="M685.144 698.561C679.048 701.475 683.568 710.954 689.674 708.035C695.765 705.122 691.245 695.644 685.144 698.561Z" fill="white"/>
<path d="M910.989 616.103C904.898 619.015 909.416 628.488 915.516 625.572C921.612 622.657 917.095 613.184 910.989 616.103Z" fill="white"/>
<path d="M985.618 584.254C979.527 587.166 984.045 596.64 990.146 593.723C996.242 590.808 991.724 581.335 985.618 584.254Z" fill="white"/>
<path d="M1078.65 542.542C1072.55 545.457 1077.07 554.931 1083.18 552.012C1089.27 549.099 1084.75 539.626 1078.65 542.542Z" fill="white"/>
<path d="M830.233 628.273C824.137 631.188 828.655 640.661 834.761 637.742C840.852 634.83 836.334 625.356 830.233 628.273Z" fill="white"/>
<path d="M766.053 653.008C759.962 655.92 764.482 665.398 770.583 662.482C776.679 659.567 772.159 650.089 766.053 653.008Z" fill="white"/>
<path d="M808.732 667.631C802.641 670.543 807.161 680.022 813.262 677.105C819.358 674.19 814.838 664.712 808.732 667.631Z" fill="white"/>
<path d="M844.069 690.395C837.978 693.307 842.496 702.781 848.596 699.864C854.692 696.949 850.175 687.476 844.069 690.395Z" fill="white"/>
<path d="M785.017 712.018C778.921 714.932 783.439 724.406 789.544 721.487C795.636 718.575 791.118 709.101 785.017 712.018Z" fill="white"/>
<path d="M818.759 734.219C812.668 737.131 817.186 746.604 823.286 743.688C829.382 740.773 824.865 731.3 818.759 734.219Z" fill="white"/>
<path d="M563.563 707.66C557.472 710.572 561.992 720.051 568.092 717.134C574.188 714.219 569.668 704.741 563.563 707.66Z" fill="white"/>
<path d="M634.452 638.74C628.36 641.652 632.878 651.126 638.979 648.209C645.075 645.295 640.557 635.821 634.452 638.74Z" fill="white"/>
<path d="M657.14 672.054C651.044 674.969 655.561 684.442 661.667 681.523C667.758 678.611 663.24 669.137 657.14 672.054Z" fill="white"/>
<path d="M729.571 649.967C723.48 652.879 727.998 662.353 734.098 659.436C740.194 656.522 735.677 647.048 729.571 649.967Z" fill="white"/>
<path d="M491.622 708.341C485.53 711.254 490.048 720.727 496.149 717.81C502.245 714.896 497.727 705.422 491.622 708.341Z" fill="white"/>
<path d="M844.739 592.26C838.643 595.175 843.16 604.648 849.266 601.729C855.357 598.817 850.839 589.343 844.739 592.26Z" fill="white"/>
<path d="M923.146 519.502C917.055 522.415 921.572 531.888 927.673 528.972C933.769 526.057 929.252 516.583 923.146 519.502Z" fill="white"/>
<path d="M988.597 535.329C982.505 538.241 987.023 547.715 993.124 544.798C999.22 541.884 994.702 532.41 988.597 535.329Z" fill="white"/>
<path d="M1022.7 498.053C1016.61 500.966 1021.13 510.439 1027.23 507.522C1033.33 504.608 1028.81 495.134 1022.7 498.053Z" fill="white"/>
<path d="M909.884 581.481C903.788 584.396 908.306 593.869 914.412 590.95C920.503 588.038 915.985 578.564 909.884 581.481Z" fill="white"/>
<path d="M726.374 933.566C726.374 933.566 673.651 973.972 683.358 983.21C693.06 992.451 726.374 933.566 726.374 933.566Z" fill="white"/>
<path d="M763.138 920.613C763.138 920.613 714.271 999.493 734.432 1005.72C754.59 1011.94 763.138 920.613 763.138 920.613Z" fill="white"/>
<path d="M804.491 904.812C804.491 904.812 771.995 993.045 791.15 995.786C810.302 998.524 804.491 904.812 804.491 904.812Z" fill="white"/>
<path d="M830.708 885.003C830.708 885.003 864.731 952.012 849.693 957.882C834.653 963.747 830.708 885.003 830.708 885.003Z" fill="white"/>
<path d="M754.37 756.941C754.37 756.941 752.702 788.801 755.903 797.18C759.107 805.563 770.448 825.919 770.448 825.919C770.448 825.919 776.021 795.496 772.163 787.426C768.305 779.356 754.37 756.941 754.37 756.941Z" fill="white"/>
<path d="M812.505 798.542C812.505 798.542 798.584 816.432 796.994 831.071C795.4 845.713 800.892 866.875 800.892 866.875C800.892 866.875 816.755 844.752 818.3 832.779C819.845 820.806 812.505 798.542 812.505 798.542Z" fill="white"/>
<path d="M870.227 761.691C870.227 761.691 854.369 783.811 851.232 795.226C848.099 806.638 849.029 829.322 849.029 829.322C849.029 829.322 870.502 806.502 872 797.19C873.496 787.886 870.227 761.691 870.227 761.691Z" fill="white"/>
<path d="M754.897 549.496C757.951 555.884 755.249 563.537 748.861 566.591C742.473 569.645 734.82 566.943 731.766 560.555C728.712 554.167 731.414 546.514 737.802 543.46C744.19 540.406 751.843 543.108 754.897 549.496Z" fill="white"/>
<path d="M741.208 549.894C735.117 552.806 739.634 562.28 745.735 559.363C751.831 556.448 747.313 546.975 741.208 549.894Z" fill="#1A1A1A"/>
<path d="M769.049 845.885C762.953 848.799 767.471 858.273 773.576 855.354C779.667 852.442 775.15 842.968 769.049 845.885Z" fill="white"/>
<path d="M760.225 877.196C754.133 880.109 758.651 889.582 764.752 886.666C770.848 883.751 766.33 874.277 760.225 877.196Z" fill="white"/>
<path d="M740.179 909.914C734.088 912.827 738.601 922.302 744.707 919.383C750.798 916.471 746.285 906.995 740.179 909.914Z" fill="white"/>
<path d="M842.481 840.515C836.39 843.427 840.907 852.901 847.008 849.984C853.104 847.069 848.586 837.596 842.481 840.515Z" fill="white"/>
<path d="M834.783 868.649C828.692 871.561 833.21 881.035 839.311 878.118C845.407 875.203 840.889 865.73 834.783 868.649Z" fill="white"/>
<path d="M799.913 880.03C793.821 882.943 798.337 892.423 804.442 889.504C810.533 886.592 806.018 877.111 799.913 880.03Z" fill="white"/>
<path d="M872.411 731.696C866.315 734.61 870.832 744.084 876.938 741.165C883.029 738.253 878.511 728.779 872.411 731.696Z" fill="white"/>
<path d="M744.929 731.844C738.833 734.758 743.351 744.232 749.456 741.313C755.547 738.401 751.03 728.927 744.929 731.844Z" fill="white"/>
<defs>
<filter id="filter0_f_144_76" x="-23" y="0" width="1482" height="1482" filterUnits="userSpaceOnUse" color-interpolation-filters="sRGB">
<feFlood flood-opacity="0" result="BackgroundImageFix"/>
<feBlend mode="normal" in="SourceGraphic" in2="BackgroundImageFix" result="shape"/>
<feGaussianBlur stdDeviation="250" result="effect1_foregroundBlur_144_76"/>
</filter>
</defs>
</svg>
