<svg aria-hidden="true" style="position: absolute; width: 0; height: 0; overflow: hidden;" version="1.1" xmlns="http://www.w3.org/2000/svg" xmlns:xlink="http://www.w3.org/1999/xlink">
<defs>
<symbol id="logo" viewBox="0 0 102 32">
<path fill="#fff" style="fill: var(--color1, #fff)" d="M3.627 22.673c-1.004-0.375-1.826-1.524-2.467-3.446-0.568-1.705-0.937-3.773-1.106-6.203-0.036-0.677-0.054-1.62-0.054-2.83v-0.961c0.012-1.669 0.054-3.265 0.127-4.789 0.036-0.52 0.060-0.943 0.073-1.27 0.024-0.327 0.048-0.574 0.073-0.744s0.048-0.29 0.073-0.363c0.036-0.085 0.079-0.151 0.127-0.2 0.121-0.109 0.248-0.163 0.381-0.163h0.036c0.157 0.012 0.284 0.085 0.381 0.218 0.024 0.036 0.042 0.085 0.054 0.145s0.018 0.163 0.018 0.308c0.012 0.133 0.018 0.333 0.018 0.599 0 0.254-0.006 0.599-0.018 1.034-0.012 0.423-0.024 0.961-0.036 1.614-0.060 2.032-0.091 3.567-0.091 4.607 0 1.052 0.024 1.941 0.073 2.666 0.193 2.6 0.574 4.674 1.143 6.222 0.568 1.536 1.185 2.304 1.85 2.304h0.127c0.169-0.036 0.387-0.175 0.653-0.417 0.266-0.254 0.508-0.532 0.725-0.834 1.052-1.487 2.448-5.133 4.19-10.938 1.209-3.966 1.85-6.463 1.922-7.491 0.060-0.508 0.133-0.84 0.218-0.998 0.085-0.169 0.236-0.254 0.453-0.254 0.387 0 0.58 0.345 0.58 1.034 0 0.339-0.048 0.762-0.145 1.27-0.411 2.044-1.354 5.381-2.829 10.012-1.826 5.792-3.506 9.039-5.042 9.74-0.23 0.109-0.435 0.169-0.617 0.181-0.169 0.012-0.284 0.018-0.345 0.018-0.193 0-0.375-0.024-0.544-0.073z"></path>
<path fill="#fff" style="fill: var(--color1, #fff)" d="M13.33 31.634c-0.206-0.109-0.387-0.272-0.544-0.49-0.169-0.218-0.29-0.459-0.363-0.726-0.060-0.242-0.091-0.508-0.091-0.798 0-1.064 0.423-2.455 1.27-4.172 1.318-2.612 3.095-5.030 5.332-7.255 0.278-0.278 0.52-0.532 0.725-0.762 0.206-0.242 0.333-0.399 0.381-0.472 0.085-0.194 0.151-0.58 0.2-1.161 0.060-0.58 0.091-1.167 0.091-1.759 0.012-0.605-0.012-1.034-0.073-1.288-0.048-0.206-0.139-0.308-0.272-0.308-0.060 0-0.133 0.024-0.218 0.073-0.169 0.073-0.738 0.919-1.705 2.539-0.774 1.294-1.397 2.243-1.868 2.848-0.459 0.605-0.864 0.992-1.215 1.161-0.339 0.193-0.647 0.29-0.925 0.29-0.375 0-0.707-0.157-0.998-0.472-0.532-0.544-0.798-1.56-0.798-3.047 0-0.206 0.006-0.423 0.018-0.653 0.036-0.689 0.115-1.36 0.236-2.013s0.254-1.137 0.399-1.451c0.193-0.363 0.399-0.544 0.617-0.544 0.073 0 0.145 0.018 0.218 0.054 0.121 0.048 0.2 0.115 0.236 0.2 0.048 0.073 0.073 0.157 0.073 0.254 0 0.060-0.006 0.121-0.018 0.181-0.024 0.181-0.085 0.453-0.181 0.816-0.145 0.592-0.242 1.155-0.29 1.687-0.036 0.532-0.054 0.949-0.054 1.252s0.012 0.586 0.036 0.853c0.097 0.955 0.314 1.433 0.653 1.433 0.169 0 0.375-0.127 0.617-0.381 0.218-0.206 0.478-0.526 0.78-0.961 0.302-0.447 0.75-1.167 1.342-2.158 0.326-0.532 0.623-1.010 0.889-1.433 0.278-0.435 0.472-0.72 0.58-0.853 0.689-0.979 1.294-1.469 1.814-1.469 0.048 0 0.097 0.006 0.145 0.018 0.472 0.048 0.804 0.339 0.997 0.871 0.193 0.52 0.29 1.397 0.29 2.63 0 0.278 0.006 0.532 0.018 0.762 0.012 0.218 0.024 0.351 0.036 0.399 0.024 0.085 0.079 0.127 0.163 0.127 0.048 0 0.103-0.012 0.163-0.036 0.169-0.060 0.472-0.23 0.907-0.508 0.568-0.351 1.173-0.683 1.814-0.998s1.094-0.496 1.36-0.544c0.073-0.012 0.139-0.018 0.2-0.018 0.048 0 0.091 0.006 0.127 0.018 0.073 0.012 0.151 0.066 0.236 0.163 0.133 0.121 0.2 0.248 0.2 0.381 0 0.085-0.036 0.175-0.109 0.272-0.181 0.218-0.647 0.502-1.397 0.853-0.931 0.46-1.777 0.961-2.539 1.506-0.762 0.532-1.215 0.955-1.36 1.27-0.048 0.097-0.103 0.284-0.163 0.562-0.048 0.278-0.097 0.587-0.145 0.925-0.472 3.132-1.221 5.792-2.249 7.981-1.016 2.104-2.146 3.489-3.392 4.154-0.242 0.133-0.447 0.218-0.617 0.254-0.157 0.048-0.357 0.079-0.598 0.091-0.121 0.012-0.23 0.018-0.326 0.018s-0.181-0.006-0.254-0.018c-0.133-0.024-0.266-0.073-0.399-0.145zM14.945 30.291c0.931-0.508 1.808-1.584 2.63-3.229 0.834-1.645 1.487-3.61 1.959-5.895 0.109-0.472 0.163-0.834 0.163-1.088 0-0.29-0.067-0.435-0.2-0.435s-0.339 0.151-0.617 0.453c-0.979 1.028-1.953 2.304-2.92 3.827-0.955 1.512-1.632 2.842-2.031 3.991-0.133 0.423-0.212 0.774-0.236 1.052-0.024 0.29-0.036 0.496-0.036 0.617 0 0.218 0.024 0.387 0.073 0.508 0.097 0.266 0.278 0.399 0.544 0.399 0.181 0 0.405-0.067 0.671-0.2z"></path>
<path fill="#fff" style="fill: var(--color1, #fff)" d="M26.625 24.378c-0.097-0.036-0.218-0.103-0.363-0.2-0.133-0.085-0.26-0.181-0.381-0.29-0.544-0.52-0.816-1.179-0.816-1.977v-0.2c0.048-0.907 0.417-1.844 1.106-2.811 0.109-0.157 0.284-0.375 0.526-0.653 0.254-0.29 0.514-0.574 0.78-0.853 0.266-0.266 0.484-0.502 0.653-0.707 0.181-0.218 0.272-0.339 0.272-0.363 0-0.194-0.266-0.393-0.798-0.599-1.040-0.399-1.62-0.973-1.741-1.723-0.024-0.133-0.036-0.272-0.036-0.417 0-0.907 0.502-1.862 1.505-2.866 0.943-0.943 1.783-1.415 2.521-1.415 0.145 0 0.26 0.018 0.345 0.054s0.169 0.097 0.254 0.181c0.157 0.181 0.236 0.339 0.236 0.472 0 0.242-0.248 0.411-0.744 0.508-0.302 0.036-0.586 0.145-0.852 0.326-0.266 0.169-0.574 0.429-0.925 0.78-0.677 0.738-1.016 1.354-1.016 1.85 0 0.181 0.042 0.351 0.127 0.508 0.193 0.29 0.762 0.574 1.705 0.852 0.339 0.109 0.629 0.163 0.871 0.163 0.097 0 0.181-0.006 0.254-0.018 0.278-0.048 0.677-0.236 1.197-0.562 1.802-1.137 3.222-1.747 4.262-1.832 0.085-0.012 0.157-0.018 0.218-0.018 0.072 0 0.127 0.006 0.163 0.018 0.085 0 0.151 0.012 0.2 0.036 0.061 0.024 0.121 0.073 0.181 0.145 0.133 0.133 0.2 0.272 0.2 0.417 0 0.048-0.012 0.103-0.036 0.163-0.060 0.206-0.23 0.345-0.508 0.417-0.423 0.097-0.75 0.175-0.979 0.236-0.218 0.060-0.435 0.139-0.653 0.236-0.206 0.097-0.502 0.248-0.889 0.453l-0.145 0.073c-0.786 0.375-1.215 0.629-1.288 0.762-0.060 0.121-0.091 0.212-0.091 0.272 0 0.181 0.139 0.417 0.417 0.707 0.339 0.363 0.574 0.707 0.707 1.034 0.133 0.314 0.212 0.695 0.236 1.143v0.29c0 0.169-0.006 0.32-0.018 0.453-0.024 0.194-0.079 0.423-0.163 0.689-0.254 0.834-0.719 1.614-1.397 2.34-0.931 0.979-1.965 1.626-3.101 1.941-0.254 0.060-0.544 0.091-0.871 0.091h-0.163c-0.399 0-0.719-0.036-0.961-0.109zM29.073 22.855c0.955-0.496 1.687-1.119 2.195-1.868 0.508-0.762 0.762-1.463 0.762-2.104 0-0.133-0.012-0.26-0.036-0.381-0.121-0.593-0.429-1.058-0.925-1.397-0.218-0.169-0.435-0.254-0.653-0.254-0.121 0-0.248 0.030-0.381 0.091-0.339 0.145-0.871 0.587-1.596 1.324-0.254 0.254-0.508 0.526-0.762 0.816-0.242 0.29-0.429 0.526-0.562 0.707-0.496 0.798-0.744 1.487-0.744 2.068 0 0.29 0.054 0.55 0.163 0.78 0.121 0.23 0.266 0.381 0.435 0.453 0.169 0.060 0.381 0.091 0.635 0.091h0.236c0.254-0.012 0.466-0.036 0.635-0.073 0.169-0.048 0.369-0.133 0.599-0.254z"></path>
<path fill="#fff" style="fill: var(--color1, #fff)" d="M35.965 20.352c-0.048-0.024-0.109-0.060-0.181-0.109s-0.133-0.109-0.181-0.181c-0.036-0.036-0.061-0.079-0.072-0.127-0.024-0.060-0.043-0.145-0.054-0.254-0.012-0.121-0.018-0.29-0.018-0.508-0.012-0.218-0.018-0.514-0.018-0.889 0-0.387 0-0.871 0-1.451v-0.635c0-3.543 0.194-7.195 0.58-10.956 0.072-0.568 0.133-1.155 0.181-1.759 0.060-0.617 0.109-1.112 0.145-1.487 0.036-0.508 0.072-0.865 0.109-1.070s0.084-0.333 0.145-0.381c0.097-0.109 0.218-0.163 0.363-0.163s0.272 0.054 0.381 0.163c0.048 0.048 0.079 0.115 0.091 0.2 0.024 0.073 0.036 0.206 0.036 0.399 0.012 0.193 0.018 0.478 0.018 0.853-0.012 0.375-0.036 0.859-0.073 1.451-0.024 0.58-0.060 1.137-0.109 1.669-0.266 2.914-0.429 5.085-0.49 6.512s-0.091 2.406-0.091 2.938c0 0.75 0.036 1.179 0.109 1.288 0.024 0.036 0.054 0.054 0.091 0.054 0.024 0 0.054-0.012 0.091-0.036 0.061-0.036 0.157-0.157 0.29-0.363s0.326-0.526 0.58-0.961c1.281-2.213 2.334-3.537 3.156-3.972 0.29-0.133 0.568-0.2 0.834-0.2 0.472 0 0.907 0.212 1.306 0.635 0.254 0.266 0.447 0.629 0.58 1.088 0.133 0.447 0.272 1.191 0.417 2.231 0.084 0.701 0.163 1.245 0.236 1.632 0.072 0.375 0.151 0.659 0.236 0.853 0.084 0.181 0.193 0.339 0.326 0.472s0.284 0.2 0.453 0.2c0.193 0 0.417-0.079 0.671-0.236 0.484-0.314 1.336-1.215 2.557-2.703 0.387-0.472 0.677-0.816 0.87-1.034 0.206-0.23 0.357-0.375 0.453-0.435 0.109-0.060 0.218-0.091 0.326-0.091 0.278 0 0.429 0.073 0.453 0.218 0.036 0.133 0.054 0.23 0.054 0.29 0 0.181-0.072 0.393-0.218 0.635-0.29 0.46-0.719 1.010-1.288 1.651-0.556 0.641-1.112 1.233-1.669 1.778-0.544 0.532-0.949 0.871-1.215 1.016-0.387 0.181-0.75 0.272-1.088 0.272-0.483 0-0.907-0.193-1.269-0.58-0.278-0.29-0.496-0.653-0.653-1.088s-0.284-1.016-0.381-1.741c-0.121-0.895-0.224-1.572-0.308-2.032-0.072-0.472-0.145-0.804-0.218-0.998-0.072-0.206-0.163-0.363-0.272-0.472-0.121-0.121-0.254-0.181-0.399-0.181-0.29 0-0.641 0.248-1.052 0.744-0.762 0.943-1.518 2.11-2.267 3.501-0.737 1.379-1.239 2.545-1.505 3.501-0.157 0.58-0.447 0.871-0.87 0.871-0.061 0-0.121-0.006-0.181-0.018z"></path>
<path fill="#fff" style="fill: var(--color1, #fff)" d="M50.801 31.634c-0.205-0.109-0.387-0.272-0.544-0.49-0.169-0.218-0.29-0.459-0.363-0.726-0.061-0.242-0.091-0.508-0.091-0.798 0-1.064 0.423-2.455 1.27-4.172 1.318-2.612 3.095-5.030 5.332-7.255 0.278-0.278 0.52-0.532 0.725-0.762 0.206-0.242 0.333-0.399 0.381-0.472 0.084-0.194 0.151-0.58 0.2-1.161 0.060-0.58 0.091-1.167 0.091-1.759 0.012-0.605-0.012-1.034-0.072-1.288-0.048-0.206-0.139-0.308-0.272-0.308-0.061 0-0.133 0.024-0.218 0.073-0.17 0.073-0.738 0.919-1.705 2.539-0.774 1.294-1.397 2.243-1.868 2.848-0.459 0.605-0.864 0.992-1.215 1.161-0.339 0.193-0.647 0.29-0.925 0.29-0.375 0-0.707-0.157-0.998-0.472-0.532-0.544-0.798-1.56-0.798-3.047 0-0.206 0.006-0.423 0.018-0.653 0.036-0.689 0.115-1.36 0.236-2.013s0.254-1.137 0.399-1.451c0.193-0.363 0.399-0.544 0.617-0.544 0.072 0 0.145 0.018 0.218 0.054 0.121 0.048 0.2 0.115 0.236 0.2 0.049 0.073 0.073 0.157 0.073 0.254 0 0.060-0.006 0.121-0.018 0.181-0.024 0.181-0.084 0.453-0.181 0.816-0.145 0.592-0.242 1.155-0.29 1.687-0.036 0.532-0.054 0.949-0.054 1.252s0.012 0.586 0.036 0.853c0.097 0.955 0.314 1.433 0.653 1.433 0.169 0 0.375-0.127 0.617-0.381 0.218-0.206 0.478-0.526 0.78-0.961 0.302-0.447 0.75-1.167 1.342-2.158 0.326-0.532 0.623-1.010 0.889-1.433 0.278-0.435 0.471-0.72 0.58-0.853 0.689-0.979 1.294-1.469 1.814-1.469 0.048 0 0.097 0.006 0.145 0.018 0.471 0.048 0.804 0.339 0.997 0.871 0.193 0.52 0.29 1.397 0.29 2.63 0 0.278 0.006 0.532 0.018 0.762 0.012 0.218 0.024 0.351 0.036 0.399 0.024 0.085 0.079 0.127 0.163 0.127 0.048 0 0.103-0.012 0.163-0.036 0.169-0.060 0.471-0.23 0.907-0.508 0.568-0.351 1.173-0.683 1.814-0.998s1.094-0.496 1.36-0.544c0.073-0.012 0.139-0.018 0.2-0.018 0.049 0 0.091 0.006 0.127 0.018 0.073 0.012 0.151 0.066 0.236 0.163 0.133 0.121 0.2 0.248 0.2 0.381 0 0.085-0.036 0.175-0.109 0.272-0.181 0.218-0.647 0.502-1.396 0.853-0.931 0.46-1.777 0.961-2.539 1.506-0.762 0.532-1.215 0.955-1.36 1.27-0.048 0.097-0.103 0.284-0.163 0.562-0.048 0.278-0.097 0.587-0.145 0.925-0.471 3.132-1.221 5.792-2.249 7.981-1.016 2.104-2.146 3.489-3.392 4.154-0.242 0.133-0.447 0.218-0.617 0.254-0.157 0.048-0.357 0.079-0.599 0.091-0.121 0.012-0.229 0.018-0.326 0.018s-0.181-0.006-0.254-0.018c-0.133-0.024-0.266-0.073-0.399-0.145zM52.415 30.291c0.931-0.508 1.808-1.584 2.63-3.229 0.834-1.645 1.487-3.61 1.959-5.895 0.109-0.472 0.163-0.834 0.163-1.088 0-0.29-0.067-0.435-0.2-0.435s-0.339 0.151-0.617 0.453c-0.979 1.028-1.953 2.304-2.92 3.827-0.955 1.512-1.632 2.842-2.031 3.991-0.133 0.423-0.212 0.774-0.236 1.052-0.024 0.29-0.036 0.496-0.036 0.617 0 0.218 0.025 0.387 0.073 0.508 0.097 0.266 0.278 0.399 0.544 0.399 0.181 0 0.405-0.067 0.671-0.2z"></path>
<path fill="#fff" style="fill: var(--color1, #fff)" d="M66.036 20.442c-0.883-0.218-1.572-1.088-2.068-2.612-0.544-1.572-0.84-3.489-0.889-5.75 0-0.302 0-0.532 0-0.689s0.012-0.272 0.036-0.345c0.024-0.085 0.067-0.157 0.127-0.218 0.109-0.157 0.242-0.236 0.399-0.236 0.145 0 0.272 0.073 0.381 0.218 0.048 0.060 0.085 0.145 0.109 0.254 0.036 0.097 0.066 0.26 0.091 0.49 0.024 0.218 0.048 0.526 0.073 0.925 0.036 0.423 0.067 0.81 0.091 1.161 0.036 0.351 0.060 0.593 0.073 0.726 0.084 0.653 0.236 1.366 0.453 2.14 0.218 0.762 0.435 1.366 0.653 1.814 0.266 0.532 0.592 0.798 0.979 0.798 0.569 0 1.27-0.635 2.104-1.905 0.278-0.399 0.423-0.659 0.435-0.78 0.024-0.121 0.036-0.194 0.036-0.218 0-0.206-0.079-0.441-0.236-0.707-0.242-0.411-0.399-0.774-0.472-1.088s-0.109-0.762-0.109-1.342v-0.073c0-1.052 0.242-2.025 0.725-2.92 0.52-1.040 1.131-1.56 1.832-1.56h0.163c0.193 0.012 0.333 0.042 0.417 0.091 0.097 0.048 0.212 0.145 0.344 0.29 0.194 0.218 0.321 0.46 0.381 0.726 0.061 0.254 0.091 0.55 0.091 0.889 0 0.133-0.006 0.278-0.018 0.435-0.060 0.979-0.308 2.086-0.743 3.319-0.181 0.472-0.278 0.768-0.29 0.889 0 0.109 0 0.175 0 0.2 0 0.181 0.060 0.308 0.181 0.381 0.218 0.121 0.574 0.181 1.070 0.181h0.127c0.556-0.024 1.094-0.115 1.614-0.272 0.435-0.157 0.852-0.375 1.251-0.653 0.399-0.29 0.75-0.574 1.052-0.853 0.194-0.181 0.381-0.314 0.562-0.399 0.193-0.085 0.338-0.127 0.435-0.127 0.073 0 0.139 0.018 0.2 0.054 0.073 0.048 0.109 0.139 0.109 0.272 0 0.097-0.024 0.23-0.073 0.399-0.060 0.242-0.2 0.52-0.417 0.834s-0.623 0.653-1.215 1.016c-1.209 0.677-2.43 1.016-3.664 1.016-0.435 0-0.87-0.042-1.306-0.127-0.157-0.048-0.29-0.073-0.399-0.073-0.048 0-0.091 0.006-0.127 0.018-0.121 0.024-0.248 0.109-0.381 0.254s-0.308 0.375-0.526 0.689c-0.786 1.137-1.511 1.886-2.177 2.249-0.266 0.121-0.496 0.2-0.689 0.236-0.193 0.024-0.344 0.036-0.453 0.036-0.133 0-0.248-0.018-0.344-0.054zM70.279 13.731c0.17-0.363 0.308-0.804 0.417-1.324 0.121-0.52 0.187-0.901 0.2-1.143s0.018-0.381 0.018-0.417c0-0.351-0.048-0.568-0.145-0.653-0.036-0.012-0.073-0.018-0.109-0.018-0.278 0-0.58 0.532-0.907 1.596-0.133 0.508-0.2 0.961-0.2 1.36v0.109c0.024 0.435 0.079 0.695 0.163 0.78s0.145 0.127 0.181 0.127c0.109 0 0.236-0.139 0.381-0.417z"></path>
<path fill="#fff" style="fill: var(--color1, #fff)" d="M90.067 23.127c-0.060-0.048-0.121-0.121-0.181-0.218-0.048-0.109-0.091-0.224-0.127-0.345-0.375-1.512-0.623-4.916-0.743-10.212-0.024-0.75-0.048-1.379-0.073-1.886-0.024-0.52-0.042-0.798-0.054-0.834-0.036-0.012-0.066-0.018-0.091-0.018h-0.036c-0.048 0.024-0.103 0.097-0.163 0.218-0.061 0.109-0.145 0.29-0.254 0.544-0.097 0.242-0.224 0.574-0.381 0.998s-0.351 0.949-0.58 1.578c-1.608 4.45-2.998 7.201-4.171 8.253-0.556 0.556-1.119 0.846-1.687 0.871h-0.127c-1.124 0-1.953-0.895-2.485-2.684-0.254-0.907-0.381-1.723-0.381-2.449 0-0.738 0-1.143 0-1.215 0-1.342 0.121-2.721 0.363-4.136 0.472-2.6 1.276-4.916 2.412-6.947 1.149-2.044 2.43-3.44 3.845-4.19 0.605-0.302 1.185-0.453 1.741-0.453 0.883 0 1.686 0.387 2.412 1.161 0.544 0.593 0.816 1.082 0.816 1.469 0 0.169-0.048 0.32-0.145 0.453-0.073 0.085-0.121 0.127-0.145 0.127s-0.043 0-0.054 0c-0.036 0-0.091-0.018-0.163-0.054s-0.193-0.133-0.363-0.29c-0.157-0.157-0.326-0.339-0.508-0.544-0.435-0.447-0.774-0.744-1.016-0.889-0.229-0.097-0.496-0.145-0.798-0.145-0.29-0.012-0.568 0.030-0.834 0.127-1.028 0.435-2.037 1.379-3.029 2.83-0.979 1.451-1.759 3.144-2.339 5.079-0.605 2.14-0.907 4.317-0.907 6.53 0 2.431 0.333 3.96 0.997 4.589 0.193 0.206 0.399 0.308 0.617 0.308 0.737 0 1.632-1.088 2.684-3.265 0.424-0.81 0.889-1.88 1.397-3.211 0.52-1.342 1.233-3.307 2.14-5.895 0.423-1.221 0.756-2.159 0.998-2.812 0.254-0.653 0.453-1.125 0.598-1.415 0.157-0.29 0.296-0.49 0.417-0.599 0.061-0.060 0.103-0.097 0.127-0.109 0.036-0.024 0.061-0.036 0.073-0.036l0.073 0.018c0.048 0.012 0.121 0.042 0.218 0.091 0.218 0.097 0.375 0.266 0.472 0.508 0.036 0.085 0.060 0.163 0.073 0.236 0.024 0.073 0.036 0.175 0.036 0.308s-0.012 0.327-0.036 0.58c-0.012 0.254-0.043 0.605-0.091 1.052-0.218 2.225-0.326 4.19-0.326 5.895 0 1.258 0.043 2.733 0.127 4.426 0.097 1.693 0.206 3.059 0.326 4.099 0.085 0.641 0.133 1.094 0.145 1.36 0.024 0.266 0.036 0.466 0.036 0.599v0.163c-0.024 0.133-0.073 0.23-0.145 0.29-0.121 0.133-0.254 0.2-0.399 0.2-0.097 0-0.2-0.036-0.308-0.109z"></path>
<path fill="#fff" style="fill: var(--color1, #fff)" d="M95.054 23.036c-0.084-0.121-0.127-0.236-0.127-0.345 0-0.206 0.169-0.399 0.508-0.58 0.109-0.048 0.266-0.103 0.472-0.163s0.411-0.115 0.617-0.163c0.205-0.048 0.393-0.097 0.562-0.145 0.169-0.060 0.284-0.109 0.344-0.145 0.133-0.060 0.224-0.242 0.272-0.544 0.048-0.314 0.073-0.871 0.073-1.669 0-1.959 0.084-4.613 0.254-7.963 0.181-3.362 0.369-5.907 0.562-7.636 0.048-0.399 0.085-0.713 0.109-0.943s0.036-0.405 0.036-0.526c0.012-0.121 0.006-0.206-0.018-0.254s-0.054-0.091-0.091-0.127c-0.048-0.060-0.121-0.091-0.218-0.091-0.084-0.012-0.23-0.012-0.435 0-0.109 0.012-0.206 0.018-0.29 0.018-0.145 0-0.254-0.018-0.326-0.054-0.109-0.048-0.163-0.181-0.163-0.399 0-0.52 0.719-0.895 2.158-1.125 0.459-0.073 0.834-0.109 1.124-0.109s0.465 0 0.526 0c0.387 0 0.653 0.030 0.798 0.091s0.236 0.133 0.272 0.218c0.036 0.085 0.054 0.157 0.054 0.218s-0.018 0.127-0.054 0.2c-0.097 0.254-0.447 0.405-1.052 0.453-0.375 0.024-0.635 0.103-0.78 0.236-0.133 0.133-0.218 0.387-0.254 0.762-0.121 0.895-0.254 2.37-0.399 4.426-0.133 2.056-0.254 4.22-0.363 6.494-0.097 2.273-0.151 4.196-0.163 5.768v0.744c0 0.363 0.006 0.641 0.018 0.834 0.024 0.278 0.084 0.453 0.181 0.526 0.109 0.073 0.29 0.109 0.544 0.109h0.054c0.629 0.024 0.943 0.23 0.943 0.617 0 0.206-0.109 0.357-0.326 0.453s-0.665 0.2-1.342 0.308c-0.338 0.048-0.719 0.115-1.142 0.2-0.423 0.073-0.792 0.145-1.106 0.218-0.629 0.145-1.016 0.224-1.161 0.236-0.145 0-0.229 0-0.254 0-0.218 0-0.357-0.048-0.417-0.145z"></path>
<path fill="#fff" style="fill: var(--color1, #fff)" d="M21.395 27.442c0.094-0.139 0.279-0.263 0.556-0.372 0.287-0.112 0.673-0.206 1.157-0.281 1.009-0.132 2.877-0.23 5.603-0.292 2.73-0.052 5.622-0.054 8.677-0.005 3.069 0.055 5.611 0.179 7.626 0.372 0.686 0.062 1.186 0.129 1.5 0.201 0.323 0.068 0.532 0.151 0.628 0.251 0.047 0.062 0.082 0.122 0.105 0.181 0.043 0.109 0.036 0.209-0.020 0.299-0.050 0.077-0.129 0.136-0.238 0.179-0.089 0.035-0.201 0.056-0.335 0.063-0.101 0.005-0.303-0.001-0.607-0.019s-0.64-0.046-1.009-0.085c-1.211-0.12-3.14-0.238-5.788-0.355-1.817-0.065-3.896-0.085-6.237-0.059-2.327 0.032-4.456 0.088-6.387 0.171-1.917 0.088-3.162 0.187-3.735 0.297-0.34 0.064-0.597 0.108-0.771 0.13-0.184 0.026-0.322 0.023-0.414-0.009-0.089-0.022-0.168-0.065-0.239-0.129-0.092-0.090-0.15-0.164-0.173-0.223l-0.012-0.030c-0.003-0.067 0.034-0.162 0.112-0.283z"></path>
</symbol>
<symbol id="profile" viewBox="0 0 29 32">
<path fill="#fff" style="fill: var(--color1, #fff)" d="M28.952 31.96c0-3.839-1.525-7.521-4.24-10.236s-6.397-4.24-10.236-4.24-7.521 1.525-10.236 4.24c-2.715 2.715-4.24 6.397-4.24 10.236h28.952z"></path>
<path fill="#fff" style="fill: var(--color1, #fff)" d="M21.62 7.144c0 3.946-3.199 7.144-7.144 7.144s-7.144-3.199-7.144-7.144c0-3.946 3.199-7.144 7.144-7.144s7.144 3.199 7.144 7.144z"></path>
</symbol>
<symbol id="instagram" viewBox="0 0 32 32">
<path d="M16 2.881c4.275 0 4.781 0.019 6.463 0.094 1.562 0.069 2.406 0.331 2.969 0.55 0.744 0.288 1.281 0.638 1.837 1.194 0.563 0.563 0.906 1.094 1.194 1.838 0.219 0.562 0.481 1.412 0.55 2.969 0.075 1.687 0.094 2.194 0.094 6.463 0 4.275-0.019 4.781-0.094 6.462-0.069 1.563-0.331 2.406-0.55 2.969-0.288 0.744-0.638 1.281-1.194 1.838-0.562 0.562-1.094 0.906-1.837 1.194-0.563 0.219-1.413 0.481-2.969 0.55-1.688 0.075-2.194 0.094-6.463 0.094-4.275 0-4.781-0.019-6.462-0.094-1.563-0.069-2.406-0.331-2.969-0.55-0.744-0.287-1.281-0.637-1.837-1.194-0.563-0.563-0.906-1.094-1.194-1.838-0.219-0.562-0.481-1.412-0.55-2.969-0.075-1.687-0.094-2.194-0.094-6.462 0-4.275 0.019-4.781 0.094-6.463 0.069-1.563 0.331-2.406 0.55-2.969 0.288-0.744 0.638-1.281 1.194-1.838 0.563-0.563 1.094-0.906 1.838-1.194 0.563-0.219 1.412-0.481 2.969-0.55 1.681-0.075 2.187-0.094 6.462-0.094zM16 0c-4.344 0-4.887 0.019-6.594 0.094-1.7 0.075-2.869 0.35-3.881 0.744-1.056 0.412-1.95 0.956-2.837 1.85-0.894 0.888-1.438 1.781-1.85 2.831-0.394 1.019-0.669 2.181-0.744 3.881-0.075 1.712-0.094 2.256-0.094 6.6s0.019 4.887 0.094 6.594c0.075 1.7 0.35 2.869 0.744 3.881 0.413 1.056 0.956 1.95 1.85 2.838 0.887 0.887 1.781 1.437 2.831 1.844 1.019 0.394 2.181 0.669 3.881 0.744 1.706 0.075 2.25 0.094 6.594 0.094s4.888-0.019 6.594-0.094c1.7-0.075 2.869-0.35 3.881-0.744 1.050-0.406 1.944-0.956 2.831-1.844s1.438-1.781 1.844-2.831c0.394-1.019 0.669-2.181 0.744-3.881 0.075-1.706 0.094-2.25 0.094-6.594s-0.019-4.888-0.094-6.594c-0.075-1.7-0.35-2.869-0.744-3.881-0.394-1.063-0.937-1.956-1.831-2.844-0.888-0.887-1.781-1.438-2.831-1.844-1.019-0.394-2.181-0.669-3.881-0.744-1.712-0.081-2.256-0.1-6.6-0.1z"></path>
<path d="M16 7.781c-4.537 0-8.219 3.681-8.219 8.219s3.681 8.219 8.219 8.219c4.537 0 8.219-3.681 8.219-8.219s-3.681-8.219-8.219-8.219zM16 21.331c-2.944 0-5.331-2.388-5.331-5.331s2.388-5.331 5.331-5.331c2.944 0 5.331 2.388 5.331 5.331s-2.388 5.331-5.331 5.331z"></path>
<path d="M26.462 7.456c0 1.062-0.862 1.919-1.919 1.919-1.062 0-1.919-0.862-1.919-1.919 0-1.063 0.863-1.919 1.919-1.919s1.919 0.862 1.919 1.919z"></path>
</symbol>
<symbol id="linkedin" viewBox="0 0 32 32">
<path d="M29.631 0h-27.269c-1.306 0-2.362 1.031-2.362 2.306v27.381c0 1.275 1.056 2.313 2.362 2.313h27.269c1.306 0 2.369-1.037 2.369-2.306v-27.387c0-1.275-1.063-2.306-2.369-2.306zM9.494 27.269h-4.75v-15.275h4.75v15.275zM7.119 9.913c-1.525 0-2.756-1.231-2.756-2.75s1.231-2.75 2.756-2.75c1.519 0 2.75 1.231 2.75 2.75 0 1.513-1.231 2.75-2.75 2.75zM27.269 27.269h-4.744v-7.425c0-1.769-0.031-4.050-2.469-4.050-2.469 0-2.844 1.931-2.844 3.925v7.55h-4.737v-15.275h4.55v2.088h0.062c0.631-1.2 2.181-2.469 4.488-2.469 4.806 0 5.694 3.162 5.694 7.275v8.381z"></path>
</symbol>
<symbol id="facebook" viewBox="0 0 32 32">
<path d="M16 0c-8.836 0-16 7.164-16 16 0 7.503 5.166 13.8 12.135 15.529v-10.639h-3.299v-4.89h3.299v-2.107c0-5.446 2.465-7.97 7.811-7.97 1.014 0 2.763 0.199 3.478 0.397v4.432c-0.378-0.040-1.034-0.060-1.848-0.060-2.623 0-3.637 0.994-3.637 3.578v1.729h5.226l-0.898 4.89h-4.328v10.993c7.923-0.957 14.061-7.702 14.061-15.883-0.001-8.836-7.164-16-16.001-16z"></path>
</symbol>
<symbol id="x" viewBox="0 0 32 32">
<path d="M25.202 1.678h4.907l-10.72 12.252 12.611 16.673h-9.875l-7.734-10.112-8.85 10.112h-4.91l11.466-13.105-12.098-15.82h10.125l6.991 9.243 8.086-9.243zM23.48 27.666h2.719l-17.551-23.205h-2.918l17.75 23.205z"></path>
</symbol>
<symbol id="tiktok" viewBox="0 0 27 32">
<path d="M20.097 0h-5.393v21.797c0 2.597-2.074 4.73-4.655 4.73s-4.655-2.133-4.655-4.73c0-2.551 2.028-4.638 4.517-4.73v-5.472c-5.485 0.093-9.91 4.591-9.91 10.203 0 5.658 4.517 10.203 10.094 10.203s10.094-4.591 10.094-10.203v-11.177c2.028 1.484 4.517 2.365 7.144 2.412v-5.473c-4.056-0.139-7.237-3.478-7.237-7.559z"></path>
</symbol>
<symbol id="close" viewBox="0 0 32 32">
<path d="M0.005 27.318l27.313-27.313 4.682 4.682-27.313 27.313-4.682-4.682z"></path>
<path d="M4.682 0l27.313 27.313-4.682 4.682-27.313-27.313 4.682-4.682z"></path>
</symbol>
</defs>
</svg>