<?xml version="1.0" standalone="no"?>
<!DOCTYPE svg PUBLIC "-//W3C//DTD SVG 20010904//EN"
 "http://www.w3.org/TR/2001/REC-SVG-20010904/DTD/svg10.dtd">
<svg version="1.0" xmlns="http://www.w3.org/2000/svg"
 width="256.000000pt" height="256.000000pt" viewBox="0 0 256.000000 256.000000"
 preserveAspectRatio="xMidYMid meet">
<metadata>
Created by potrace 1.14, written by Peter Selinger 2001-2017
</metadata>
<g transform="translate(0.000000,256.000000) scale(0.100000,-0.100000)"
fill="#000000" stroke="none">
<path d="M550 2460 c-272 -59 -451 -180 -395 -267 18 -28 105 -60 186 -69 35
-4 71 -8 79 -10 8 -1 53 -3 100 -4 59 -2 76 -4 55 -9 -153 -38 -133 -140 38
-193 63 -20 93 -23 236 -22 148 0 160 -1 125 -13 -49 -17 -77 -44 -68 -66 13
-36 151 -81 317 -103 26 -4 49 -10 52 -14 2 -4 -26 -30 -63 -58 -125 -96 -182
-149 -231 -216 -116 -158 -150 -203 -167 -218 -20 -17 -76 -33 -153 -43 -43
-5 -85 -11 -131 -20 -14 -2 -45 -7 -70 -10 -76 -10 -210 -45 -257 -67 -95 -44
-54 -138 63 -141 24 -1 44 -4 44 -7 0 -3 -16 -16 -36 -29 -46 -32 -110 -105
-122 -141 -25 -70 74 -102 233 -75 30 5 29 5 -17 -38 -53 -48 -79 -98 -69
-133 8 -29 47 -74 66 -75 8 -1 21 -2 28 -3 26 -4 93 26 144 65 55 41 61 42 42
7 -24 -45 35 -108 94 -100 43 5 122 92 229 252 54 80 111 160 128 178 25 28
208 124 365 192 11 4 40 17 65 28 106 48 160 71 160 67 0 -2 -18 -39 -39 -82
-83 -167 -95 -289 -32 -322 24 -14 54 -7 94 20 l32 23 -22 -25 c-13 -14 -23
-31 -23 -37 0 -7 -4 -12 -9 -12 -13 0 -65 -122 -63 -150 5 -60 78 -83 136 -44
35 24 49 19 23 -8 -25 -24 -135 -213 -161 -277 -60 -141 -27 -215 81 -180 133
42 408 326 508 524 76 152 96 324 56 497 -27 115 -76 218 -189 391 l-44 67 40
43 c21 24 41 48 43 54 2 6 26 14 52 16 27 3 70 16 95 29 38 19 53 36 77 82 19
39 43 68 72 87 24 17 43 33 43 37 0 5 -19 13 -42 20 -30 8 -49 21 -63 44 -59
95 -214 128 -299 63 -21 -16 -44 -41 -51 -55 -10 -19 -25 -30 -48 -34 -19 -4
-61 -17 -94 -30 -34 -13 -65 -21 -71 -17 -5 3 -22 29 -37 56 -89 162 -190 282
-296 350 -150 97 -375 186 -580 231 -64 13 -179 11 -259 -6z m1440 -595 c0 -5
-5 -3 -10 5 -5 8 -10 20 -10 25 0 6 5 3 10 -5 5 -8 10 -19 10 -25z m40 -65 c6
-11 8 -20 6 -20 -3 0 -10 9 -16 20 -6 11 -8 20 -6 20 3 0 10 -9 16 -20z m38
-81 c-3 -8 -7 -3 -11 10 -4 17 -3 21 5 13 5 -5 8 -16 6 -23z m3 -42 c-10 -9
-11 -8 -5 6 3 10 9 15 12 12 3 -3 0 -11 -7 -18z"/>
</g>
</svg>
